<?xml version="1.0" standalone="no"?>
<!DOCTYPE svg PUBLIC "-//W3C//DTD SVG 1.1//EN" "http://www.w3.org/Graphics/SVG/1.1/DTD/svg11.dtd" >
<svg>
<metadata>
Created by FontForge 20090914 at Sat Aug 21 20:01:48 2021
 By www-data
&#194;&#169;G.M.
</metadata>
<defs>
<font id="WalkwayBlack" horiz-adv-x="525" >
  <font-face 
    font-family="Walkway Black"
    font-weight="400"
    font-stretch="normal"
    units-per-em="1000"
    panose-1="0 0 4 0 0 0 0 0 0 0"
    ascent="800"
    descent="-200"
    x-height="487.999"
    cap-height="678"
    bbox="-186 -179 1069 874"
    underline-thickness="30"
    underline-position="-118"
    unicode-range="U+0020-U+2122"
  />
<missing-glyph horiz-adv-x="500" 
d="M63 0v874h375v-874h-375zM125 63h250v749h-250v-749z" />
    <glyph glyph-name=".notdef" horiz-adv-x="500" 
d="M63 0v874h375v-874h-375zM125 63h250v749h-250v-749z" />
    <glyph glyph-name="space" unicode=" " horiz-adv-x="354" 
 />
    <glyph glyph-name="exclam" unicode="!" horiz-adv-x="194" 
d="M50 155v523h96v-523h-96zM97 0c-13.333 0 -24.665 4.16895 -33.998 12.502s-14 19.166 -14 32.499v58c0 14 5 25.333 15 34c9.33301 6.66699 20.333 10 33 10c13.333 0 24.666 -4 33.999 -12s14 -18.667 14 -32v-58c0 -12.667 -4.33301 -23.334 -13 -32.001
s-20.334 -13 -35.001 -13z" />
    <glyph glyph-name="quotedbl" unicode="&#x22;" horiz-adv-x="292" 
d="M203 547c-32 0 -48 11.333 -48 34v58c0 22 16 33 48 33s48 -11 48 -33v-58c0 -22.667 -16 -34 -48 -34zM87 547c-31.333 0 -47 11.333 -47 34v58c0 22 15.667 33 47 33c32.667 0 49 -11 49 -33v-58c0 -22.667 -16.333 -34 -49 -34z" />
    <glyph glyph-name="numbersign" unicode="#" horiz-adv-x="531" 
d="M479 325h-91l-6 -21h88l-21 -80h-90l-19 -63h-99l19 63h-42l-19 -63h-99l19 63h-87l21 80h90l6 21h-91l27 80h88l19 63h99l-19 -63h42l18 63h98l-18 -63h88zM248 325l-6 -21h42l6 21h-42z" />
    <glyph glyph-name="dollar" unicode="$" horiz-adv-x="642" 
d="M438 -9l-0.000976562 -61.001h-96v49h-12c-13.333 0 -26.333 0.666992 -39 2v-51h-96v64c-131.333 34.667 -197 111.667 -197 231v45h97v-41c0 -71.333 33.333 -118.666 100 -141.999v241c-116 30 -174 88.667 -174 176c0 96 58 157.333 174 184v65h96v-54h20
c10.667 0 21 -0.333008 31 -1v55h96v-68c117.333 -30 177 -111.667 179 -245h-94c-5.33301 80 -33.666 130.667 -84.999 152v-222c61.333 -15.333 106 -34 134 -56c39.333 -31.333 59 -76 59 -134c0 -50 -20.667 -92.333 -62 -127c-34 -30 -77.667 -50.667 -131 -62z
M341.999 609.999c-10 0.666992 -20.333 1 -31 1c-7.33301 0 -14 -0.333008 -20 -1v-210l51 -10v220zM194.999 594.999c-52 -17.333 -78 -47.668 -78 -91.001c0 -37.333 26 -64.666 78 -81.999v173zM519.999 236.997c-14 14 -41.333 27.333 -82 40v-195
c64.667 19.333 97 53 97 101c0 26.667 -5 44.667 -15 54zM341.999 298.997l-51 9v-239c12.667 -0.666992 26 -1 40 -1h11v231z" />
    <glyph glyph-name="percent" unicode="%" horiz-adv-x="750" 
d="M560 -19c-57.333 0 -100.668 17.333 -130.001 52c-27.333 32.667 -41 79 -41 139c0 130 57.333 195 172 195c114 0 171 -65 171 -195c0 -60 -14 -106.333 -42 -139c-29.333 -34.667 -72.666 -52 -129.999 -52zM176.998 -2h-118l532 680h117zM189.998 275
c-56.667 0 -99.668 17.333 -129.001 52c-27.333 32.667 -41 78.667 -41 138c0 129.333 57 194 171 194c114.667 0 172 -64.667 172 -194c0 -59.333 -14.333 -105.333 -43 -138c-29.333 -34.667 -72.666 -52 -129.999 -52zM559.997 279c-49.333 0 -74 -35.667 -74 -107
c0 -69.333 25 -104 75 -104c49.333 0 74 34.667 74 104c0 71.333 -25 107 -75 107zM189.997 572c-48.667 0 -73 -35.667 -73 -107c0 -68.667 24.667 -103 74 -103c50 0 75 34.333 75 103c0 71.333 -25.333 107 -76 107z" />
    <glyph glyph-name="ampersand" unicode="&#x26;" horiz-adv-x="603" 
d="M464 -19l0.00195312 76c-54.667 -48.667 -120.334 -73 -197.001 -73c-64 0 -120.667 14.333 -170 43c-58.667 34 -88 80.667 -88 140c0 80.667 60 152 180 214c-60 39.333 -90 89 -90 149c0 48.667 21 86.667 63 114c36 22.667 78.333 34 127 34
c51.333 0 94.333 -11.333 129 -34c42 -26.667 63 -65 63 -115c0 -69.333 -68 -137.333 -204 -204c-61.333 -30.667 -102 -54.334 -122 -71.001c-33.333 -28 -50 -57 -50 -87c0 -28 15.667 -51 47 -69s67.666 -27 108.999 -27c78 0 135 30.333 171 91
c21.333 34.667 32 82.334 32 143.001h96v-324h-96zM291.002 591c-28.667 0 -51.833 -5.66699 -69.5 -17s-26.5 -26 -26.5 -44c0 -42 30 -76.333 90 -103c66.667 36.667 100 71 100 103c0 18 -8.66699 32.667 -26 44s-40 17 -68 17z" />
    <glyph glyph-name="quotesingle" unicode="'" horiz-adv-x="175" 
d="M87 547c-31.333 0 -47 11.333 -47 34v58c0 22 15.667 33 47 33c32.667 0 49 -11 49 -33v-58c0 -22.667 -16.333 -34 -49 -34z" />
    <glyph glyph-name="parenleft" unicode="(" horiz-adv-x="233" 
d="M174 -168c-93.333 136.667 -140 287.002 -140 451.002c0 164.667 46.667 315 140 451h111c-56.667 -80.667 -97 -157.334 -121 -230.001c-22.667 -68 -34 -141.667 -34 -221s11.333 -153 34 -221c24 -72.667 64.333 -149.334 121 -230.001h-111z" />
    <glyph glyph-name="parenright" unicode=")" horiz-adv-x="233" 
d="M54 -168h-112c58.667 80.667 100.334 157.334 125.001 230.001c24 68 36 141.667 36 221s-12 152.666 -36 219.999c-24.667 72.667 -66.334 149.667 -125.001 231h112c96.667 -134 145 -284.333 145 -451s-48.333 -317 -145 -451z" />
    <glyph glyph-name="asterisk" unicode="*" horiz-adv-x="340" 
d="M273 557c24.667 -10.667 36.999 -23.335 36.999 -38.002c0 -6 -2.66699 -12.333 -8 -19c-8.66699 -12.667 -21.667 -19 -39 -19c-14.667 0 -32.667 5 -54 15v-14c0 -11.333 -4.66699 -20.666 -14 -27.999s-20.666 -11 -33.999 -11c-32 0 -48 13 -48 39v14
c-21.333 -9.33301 -39.666 -14 -54.999 -14c-17.333 0 -30.333 5.66699 -39 17c-4.66699 6.66699 -7 13 -7 19c0 14.667 12 27.667 36 39c-24 10.667 -36 23.334 -36 38.001c0 7.33301 3 15 9 23c10.667 10 23.334 15 38.001 15c4.66699 0 9.66699 -0.333008 15 -1
c1.33301 -0.666992 14.333 -5.33398 39 -14.001v15c0 26 16 39 48 39c13.333 0 24.666 -3.66699 33.999 -11s14 -16.666 14 -27.999v-15c24.667 10 42 15 52 15c15.333 0 28.666 -5.33301 39.999 -16c5.33301 -8 8 -15.333 8 -22c0 -16 -12 -28.667 -36 -38z" />
    <glyph glyph-name="plus" unicode="+" horiz-adv-x="560" 
d="M328 210v-143h-96v143h-191v82h191v141h96v-141h192v-82h-192z" />
    <glyph glyph-name="comma" unicode="," horiz-adv-x="262" 
d="M157 -64c-7.33301 -17.333 -26 -25.999 -56 -25.999c-26 0 -39 11.667 -39 35c0 3.33301 1 7.66602 3 12.999l42 102c7.33301 17.333 22.333 26 45 26c12.667 0 24 -3.16699 34 -9.5s15 -14.833 15 -25.5c0 -4 -0.666992 -8 -2 -12z" />
    <glyph glyph-name="hyphen" unicode="-" horiz-adv-x="350" 
d="M14 254v20h332v-20h-332z" />
    <glyph glyph-name="hyphen" unicode="&#x2010;" horiz-adv-x="350" 
d="M14 254v20h332v-20h-332z" />
    <glyph glyph-name="period" unicode="." horiz-adv-x="209" 
d="M105 -2c-32 0 -48 9.66699 -48 29v29c0 19.333 16 29 48 29s48 -9.66699 48 -29v-29c0 -19.333 -16 -29 -48 -29z" />
    <glyph glyph-name="slash" unicode="/" horiz-adv-x="350" 
d="M46 0h-105l372 694h105z" />
    <glyph glyph-name="zero" unicode="0" horiz-adv-x="584" 
d="M293 -12c-86 0 -154.5 24.5 -205.5 73.5s-76.5 112.5 -76.5 190.5v154c0 78 25.5 141.667 76.5 191s119.5 74 205.5 74c86.667 0 155 -24.667 205 -74s75 -113 75 -191v-154c0 -78 -25 -141.5 -75 -190.5s-118.333 -73.5 -205 -73.5zM477 406
c0 54 -16.333 97.1689 -49 129.502s-78 48.5 -136 48.5c-58.667 0 -104.167 -16.333 -136.5 -49s-48.5 -75.667 -48.5 -129v-154c0 -52.667 16.333 -95.334 49 -128.001s78 -49 136 -49c58.667 0 104.167 16.167 136.5 48.5s48.5 75.166 48.5 128.499v154z" />
    <glyph glyph-name="one" unicode="1" horiz-adv-x="413" 
d="M252 0v513l-104 -77h-151l279 210h72v-646h-96z" />
    <glyph glyph-name="two" unicode="2" horiz-adv-x="584" 
d="M20 0c0.666992 74.667 19.668 139 57.001 193c34.667 50.667 88 95.667 160 135l140 75c49.333 26.667 74 53 74 79c0 58.667 -49.333 88 -148 88c-62 0 -106.5 -13.667 -133.5 -41s-40.5 -74.333 -40.5 -141h-96c0 98 23.5 167.333 70.5 208s111.5 61 193.5 61
c66.667 0 121.667 -12 165 -36c56 -30.667 84 -78 84 -142c0 -62 -59 -123 -177 -183c-54 -28 -93.667 -49.333 -119 -64c-66.667 -46.667 -108.334 -95 -125.001 -145h452v-87h-557z" />
    <glyph glyph-name="three" unicode="3" horiz-adv-x="584" 
d="M297 -11c-83.333 0 -151.001 17.6689 -203.001 53.002c-60 41.333 -90 100.666 -90 177.999v44h96v-56c0 -42.667 18.667 -75.667 56 -99c34.667 -22 80.334 -33 137.001 -33c53.333 0 97.666 9.33301 132.999 28c38.667 21.333 58 50.333 58 87
c0 73.333 -57.333 110 -172 110h-83v88h84c104.667 0 157 30.667 157 92c0 29.333 -16.667 52 -50 68c-29.333 14 -67.333 21 -114 21c-67.333 0 -115.166 -13 -143.499 -39s-42.5 -70.333 -42.5 -133h-96c0 99.333 27.667 168.666 83 207.999c48.667 34 114 51 196 51
c67.333 0 123.666 -11 168.999 -33c62.667 -30 94 -77.667 94 -143c0 -60 -24.667 -105 -74 -135c58 -34 87 -85.667 87 -155c0 -68 -31.667 -120.333 -95 -157c-51.333 -30 -113.666 -45 -186.999 -45z" />
    <glyph glyph-name="four" unicode="4" horiz-adv-x="584" 
d="M457 201v-201h-96v201h-390l247 446h106l-199 -359h236v361l96 -4v-357h129v-87h-129z" />
    <glyph glyph-name="five" unicode="5" horiz-adv-x="584" 
d="M487 48c-51.333 -39.333 -117.667 -58.999 -199 -58.999c-84 0 -151 17.667 -201 53c-56.667 40 -85 110.667 -85 212h96c0 -71.333 16.667 -118.833 50 -142.5s80.333 -35.5 141 -35.5c58 0 103.667 12.833 137 38.5s50 62.167 50 109.5s-17.833 84 -53.5 110
s-82.834 39 -141.501 39c-74.667 0 -132.667 -29.333 -174 -88h-85l17 361h503v-87h-409l-7 -136c44 24.667 97 37 159 37c80.667 0 147.334 -19.667 200.001 -59c58 -42.667 87 -101.334 87 -176.001s-28.333 -133.667 -85 -177z" />
    <glyph glyph-name="six" unicode="6" horiz-adv-x="584" 
d="M465 398c0 64.667 -15.833 109.334 -47.5 134.001s-72.834 37 -123.501 37c-52.667 0 -94.167 -12 -124.5 -36s-45.833 -57.333 -46.5 -100v-43c44 28 100 42 168 42c74.667 0 136.334 -18.333 185.001 -55c53.333 -40 80 -95 80 -165c0 -69.333 -27 -124 -81 -164
c-49.333 -36 -111.333 -54 -186 -54s-136.334 18 -185.001 54c-52.667 40 -79 94.667 -79 164v12v6l1 206c0 70 27.333 124.667 82 164c50 35.333 112.333 53 187 53s136.334 -18.333 185.001 -55c53.333 -40.667 80 -107.334 80 -200.001h-95zM290 348
c-52 0 -93.333 -12 -124 -36s-46 -57.333 -46 -100c0 -42 15.333 -74.833 46 -98.5s72 -35.5 124 -35.5s93.5 11.833 124.5 35.5s46.5 56.5 46.5 98.5c0 42.667 -15.5 76 -46.5 100s-72.5 36 -124.5 36z" />
    <glyph glyph-name="seven" unicode="7" horiz-adv-x="584" 
d="M235 0h-105l306 559h-407v87h559z" />
    <glyph glyph-name="eight" unicode="8" horiz-adv-x="601" 
d="M496 29c-50.667 -26.667 -115.666 -39.998 -194.999 -39.998s-145 14 -197 42c-66 35.333 -99 90.666 -99 165.999c0 72 34.333 125.333 103 160c-45.333 30 -68 69 -68 117c0 67.333 29.667 116.666 89 147.999c44.667 23.333 102 35 172 35
c69.333 0 126.666 -12 171.999 -36c60 -31.333 90 -80.333 90 -147c0 -48 -23.667 -87 -71 -117c70 -34.667 105 -88.667 105 -162c0 -74.667 -33.667 -130 -101 -166zM301.001 570.002c-110 0 -165 -32.334 -165 -97.001c0 -24 17.667 -43.667 53 -59
c32.667 -13.333 70.334 -20 113.001 -20c43.333 0 81.666 7.33301 114.999 22s50 34.334 50 59.001c0 63.333 -55.333 95 -166 95zM302.001 307.001c-134 0 -201 -37 -201 -111c0 -80 66.667 -120 200 -120s200 40 200 120c0 74 -66.333 111 -199 111z" />
    <glyph glyph-name="nine" unicode="9" horiz-adv-x="584" 
d="M559 425v-223.001c0 -70 -28 -124.667 -84 -164c-49.333 -35.333 -111.333 -53 -186 -53c-75.333 0 -137 18 -185 54c-52.667 40.667 -79 107.334 -79 200.001h95c0 -66 15.5 -110.833 46.5 -134.5s72.167 -35.5 123.5 -35.5s92.5 12 123.5 36s46.833 57 47.5 99v61
c-44 -28 -100 -42 -168 -42c-74.667 0 -136.334 18.333 -185.001 55c-52.667 39.333 -79 94 -79 164s26.667 125 80 165c49.333 36.667 111.333 55 186 55s136.334 -18.333 185.001 -55c53.333 -40.667 80 -95.667 80 -165v-12zM294 577.999
c-52 0 -93.333 -11.832 -124 -35.499s-46 -57.167 -46 -100.5c0 -42.667 15.333 -75.834 46 -99.501s72 -35.5 124 -35.5s93.5 12 124.5 36s46.5 57 46.5 99c0 42.667 -15.5 76 -46.5 100s-72.5 36 -124.5 36z" />
    <glyph glyph-name="colon" unicode=":" horiz-adv-x="244" 
d="M123 322c-13.333 0 -24.667 4 -34 12s-14 18.667 -14 32v55c0 13.333 4.66699 24 14 32s20.666 12 33.999 12c28.667 0 44.334 -14 47.001 -42l1 -57c0 -12 -4.5 -22.333 -13.5 -31s-20.5 -13 -34.5 -13zM122.999 -2c-13.333 0 -24.667 4 -34 12s-14 18.667 -14 32v55
c0 13.333 4.66699 24 14 32s20.666 12 33.999 12c28.667 0 44.334 -14 47.001 -42l1 -57c0 -12.667 -4.5 -23.167 -13.5 -31.5s-20.5 -12.5 -34.5 -12.5z" />
    <glyph glyph-name="semicolon" unicode=";" horiz-adv-x="251" 
d="M143 320c-13.333 0 -24.666 4 -33.999 12s-14 18.667 -14 32v57c0 13.333 4.66699 24 14 32s20.666 12 33.999 12c14 0 25.5 -4.33301 34.5 -13s13.5 -19 13.5 -31v-57c0 -12.667 -4.5 -23.167 -13.5 -31.5s-20.5 -12.5 -34.5 -12.5zM151 -58
c-6.66699 -22 -22 -32.999 -46 -32.999c-12.667 0 -24 4 -34 12s-15 18.333 -15 31c0 4 0.666992 8.66699 2 14l43 135c6.66699 21.333 21.667 32 45 32c12.667 0 24 -3.83301 34 -11.5s15 -17.834 15 -30.501c0 -4 -0.666992 -8.33301 -2 -13z" />
    <glyph glyph-name="less" unicode="&#x3c;" horiz-adv-x="535" 
d="M11 208v65l505 175v-89l-345 -119l345 -119v-89z" />
    <glyph glyph-name="equal" unicode="=" horiz-adv-x="630" 
d="M13 245v68h605v-68h-605zM13 167v68h605v-68h-605z" />
    <glyph glyph-name="greater" unicode="&#x3e;" horiz-adv-x="535" 
d="M11 32v89l344 119l-344 119v89l505 -175v-65z" />
    <glyph glyph-name="question" unicode="?" 
d="M395 340c-60.667 -45.333 -90.998 -88 -90.998 -128v-57h-97v52c0 69.333 37.333 132 112 188c37.333 28 62.166 49.833 74.499 65.5s18.5 34.5 18.5 56.5c0 29.333 -14.333 52 -43 68c-26 14.667 -61 22 -105 22c-54.667 0 -95.334 -12.667 -122.001 -38
s-44 -71.333 -52 -138l-91 47c12 79.333 43 136 93 170c46 30.667 103.667 46 173 46c62 0 115.333 -13 160 -39c55.333 -32 83 -78 83 -138c0 -62 -37.667 -121 -113 -177zM254.002 0c-14.667 0 -26.167 4.33301 -34.5 13s-12.5 19.334 -12.5 32.001v58
c0 13.333 4.5 24.166 13.5 32.499s20.167 12.5 33.5 12.5c12.667 0 24 -3.83301 34 -11.5s15 -18.834 15 -33.501v-58c0 -13.333 -4.83301 -24.166 -14.5 -32.499s-21.167 -12.5 -34.5 -12.5z" />
    <glyph glyph-name="at" unicode="@" horiz-adv-x="840" 
d="M606 195c-1.33301 -5.33301 -5.33008 -6.66211 -11.9971 -3.99512c-4 2 -12.333 11 -25 27l32 1c9.33301 0 21.666 5.66699 36.999 17s26.666 22.333 33.999 33c32 45.333 48 87.666 48 126.999c0 63.333 -28 115 -84 155c-53.333 38 -118.666 57 -195.999 57
c-105.333 0 -189 -31.667 -251 -95c-45.333 -46 -68 -103.667 -68 -173c0 -78 30.5 -141.5 91.5 -190.5s136.5 -73.5 226.5 -73.5c52 0 104.5 11 157.5 33s94.833 56.333 125.5 103h109c-29.333 -50.667 -59 -89.667 -89 -117
c-26.667 -24.667 -59.334 -45.334 -98.001 -62.001c-67.333 -29.333 -134 -44 -200 -44c-112.667 0 -209.334 30.667 -290.001 92c-88 66.667 -132 154.667 -132 264c0 107.333 43.333 194 130 260c78.667 60 173.334 90 284.001 90c100 0 186 -24.667 258 -74
c82 -56 123 -131.667 123 -227c0 -66 -23.667 -127.333 -71 -184c-17.333 -20.667 -39 -38.667 -65 -54c-30.667 -18 -59.667 -27 -87 -27c-32 0 -53 12.333 -63 37c-44.667 -32.667 -99.334 -49.334 -164.001 -50.001c-76 -0.666992 -133.333 24 -172 74
c-26 33.333 -39 73 -39 119c0 75.333 23.333 137.666 70 186.999c50 52 117 78.333 201 79c62 0.666992 111 -13.333 147 -42l6 42h85l-2 -22l-6 7c1.33301 -2 2 -7.66699 2 -17c0 -48 -13 -161.333 -39 -340c-6.66699 -5.33301 -10.5 -7.83301 -11.5 -7.5
s-1.83301 0.166016 -2.5 -0.500977zM421.003 490.004c-52 0 -93.833 -17.168 -125.5 -51.501s-47.5 -76.833 -47.5 -127.5c0 -74.667 40.333 -111.667 121 -111c46.667 0 86.667 15 120 45c32.667 28 52.334 63.667 59.001 107c1.33301 6.66699 2 16.334 2 29.001
c0 36 -10.833 63.333 -32.5 82s-53.834 27.667 -96.501 27z" />
    <glyph glyph-name="A" unicode="A" horiz-adv-x="636" 
d="M584 0l-97 200h-334l-99 -200h-108l340 678h75l328 -678h-105zM323 537l-126 -250h248z" />
    <glyph glyph-name="B" unicode="B" horiz-adv-x="642" 
d="M545 40c-49.333 -26.667 -111.333 -39.999 -186 -39.999h-347v678h360c67.333 0 123.333 -14 168 -42c54 -33.333 81 -82 81 -146c0 -54 -26.333 -98 -79 -132c67.333 -32 101 -85.333 101 -160c0 -70.667 -32.667 -123.334 -98 -158.001zM370 591.001h-262v-195h261
c46 0 83.5 8.33301 112.5 25s43.5 41 43.5 73s-14.333 56.167 -43 72.5s-66 24.5 -112 24.5zM367 308.001h-258.999v-221h263c51.333 0 92.666 9 123.999 27c35.333 19.333 53 47 53 83c0 38 -16.5 66 -49.5 84s-76.833 27 -131.5 27z" />
    <glyph glyph-name="C" unicode="C" horiz-adv-x="719" 
d="M640 487c-29.333 40 -62.5 68.502 -99.5 85.502s-83.167 25.5 -138.5 25.5c-90 0 -161.167 -23.5 -213.5 -70.5s-78.5 -110.167 -78.5 -189.5c0 -78.667 24.833 -141.334 74.5 -188.001s118.5 -70 206.5 -70c52.667 0 97.834 8.66699 135.501 26s72.834 46 105.501 86
l82 -49c-82.667 -100 -190 -150 -322 -150c-114.667 0 -206.334 30.833 -275.001 92.5s-103 144.5 -103 248.5c0 107.333 35.333 192.666 106 255.999s164.667 95 282 95c137.333 0 243.666 -49.667 318.999 -149z" />
    <glyph glyph-name="D" unicode="D" horiz-adv-x="680" 
d="M562 85c-70 -56.667 -165 -85 -285 -85h-257v678h295c118 0 208 -30.667 270 -92c60 -59.333 90 -142 90 -248c0 -108.667 -37.667 -193 -113 -253zM516 525c-44 44 -111.333 66 -202 66h-198v-504h164c96 0 169.833 21.167 221.5 63.5s77.5 104.833 77.5 187.5
s-21 145 -63 187z" />
    <glyph glyph-name="E" unicode="E" horiz-adv-x="564" 
d="M20 0v678h561v-87h-466v-195h413v-87h-413v-222h471v-87h-566z" />
    <glyph glyph-name="F" unicode="F" horiz-adv-x="505" 
d="M115 591v-195h368v-87h-368v-309h-95v678h525v-87h-430z" />
    <glyph glyph-name="G" unicode="G" horiz-adv-x="758" 
d="M649 266l-290 0.000976562v88h382c4 -35.333 6 -59.666 6 -72.999c0 -92.667 -37 -165.334 -111 -218.001c-66 -46.667 -147.667 -70 -245 -70c-118.667 0 -213.334 29.333 -284.001 88c-74 60.667 -111 146 -111 256c0 106.667 35.333 191.334 106 254.001
s164.667 94 282 94c87.333 0 160.333 -16.667 219 -50c68.667 -38.667 115 -111 139 -217h-98c-15.333 63.333 -43.5 109.166 -84.5 137.499s-99.167 42.5 -174.5 42.5c-92 0 -163.667 -23 -215 -69s-77 -109.667 -77 -191c0 -82.667 26 -146.334 78 -191.001
s125.333 -67 220 -67c72 0 132.833 17 182.5 51s74.834 79 75.501 135z" />
    <glyph glyph-name="H" unicode="H" horiz-adv-x="680" 
d="M565 0v309h-449v-309h-96v678h96v-282h449v282h96v-678h-96z" />
    <glyph glyph-name="I" unicode="I" horiz-adv-x="134" 
d="M20 0v678h96v-678h-96z" />
    <glyph glyph-name="J" unicode="J" horiz-adv-x="486" 
d="M223 -7c-148 0 -229.668 69.001 -245.001 207.001h97c4.66699 -44.667 17.667 -75.834 39 -93.501s56.333 -26.5 105 -26.5c56.667 0 95.334 9.33301 116.001 28s31 52.667 31 102v468h96v-473c0 -69.333 -20.667 -122 -62 -158s-100.333 -54 -177 -54z" />
    <glyph glyph-name="K" unicode="K" horiz-adv-x="670" 
d="M607 0l-371 328l-120 -86v-242h-96v678h96v-327l469 327h158l-429 -297l430 -381h-137z" />
    <glyph glyph-name="L" unicode="L" horiz-adv-x="505" 
d="M20 0v678h96v-591h428v-87h-524z" />
    <glyph glyph-name="M" unicode="M" horiz-adv-x="819" 
d="M703 0v478l-259 -478h-69l-259 478v-478h-96v678h94l295 -545l296 545h94v-678h-96z" />
    <glyph glyph-name="N" unicode="N" horiz-adv-x="680" 
d="M574 0l-458 526v-526h-96v678h86l231 -266l228 -257v523h96v-678h-87z" />
    <glyph glyph-name="O" unicode="O" horiz-adv-x="757" 
d="M379 -7c-118 0 -211.166 30.832 -279.499 92.499s-102.5 145.834 -102.5 252.501s35 190 105 250c67.333 58 159.666 87 276.999 87s210 -29 278 -87c70 -60 105 -143.333 105 -250c0 -106 -34.5 -190 -103.5 -252s-162.167 -93 -279.5 -93zM379.001 587.999
c-91.333 0 -161.667 -21.668 -211 -65.001s-74 -105 -74 -185s25 -143 75 -189s120 -69 210 -69c91.333 0 162 22.833 212 68.5s75 108.834 75 189.501s-25 142.5 -75 185.5s-120.667 64.5 -212 64.5z" />
    <glyph glyph-name="P" unicode="P" horiz-adv-x="621" 
d="M530 318c-49.333 -27.333 -110.667 -41.001 -184 -41.001h-230v-277h-96v678h337c180 0 270 -67.667 270 -203c0 -69.333 -32.333 -121.666 -97 -156.999zM362.999 590.999h-247v-227h248c48 0 87 9.33301 117 28c32.667 20 49 47.333 49 82c0 78 -55.667 117 -167 117z
" />
    <glyph glyph-name="Q" unicode="Q" horiz-adv-x="757" 
d="M691 118c-33.333 -41.333 -75.9971 -73.001 -127.997 -95.001c5.33301 -0.666992 10.666 -1 15.999 -1h130v-88h-130c-58.667 0 -106.334 18.667 -143.001 56c-18.667 -2 -37.667 -3 -57 -3c-118 0 -211.167 31.167 -279.5 93.5s-102.5 147.5 -102.5 255.5
c0 107.333 35 191 105 251c67.333 58.667 159.666 88 276.999 88s210.5 -29.667 279.5 -89s103.5 -142.666 103.5 -249.999c0 -86 -23.667 -158.667 -71 -218zM379.003 586.999c-90.667 0 -160.833 -21.833 -210.5 -65.5s-74.5 -105.5 -74.5 -185.5
c0 -63.333 15.333 -116 46 -158c36 49.333 88.667 74 158 74c49.333 0 92 -14.333 128 -43c38.667 -30.667 58.667 -70 60 -118v-1c120 34.667 180 116.667 180 246c0 80.667 -25 142.667 -75 186s-120.667 65 -212 65zM392.004 91.999
c0 21.333 -8.83398 38.833 -26.501 52.5s-40.167 20.5 -67.5 20.5c-45.333 0 -74.666 -16 -87.999 -48c46 -28 102.333 -42 169 -42h14c-0.666992 6 -1 11.667 -1 17z" />
    <glyph glyph-name="R" unicode="R" horiz-adv-x="642" 
d="M542 331c52 -32.667 78 -82 78 -148v-183h-96v180c0 69.333 -54.667 104 -164 104h-244v-284h-96v678h349c174 0 261 -62.667 261 -188c0 -71.333 -29.333 -124.333 -88 -159zM371 591h-254.999v-219h239c53.333 0 95.666 9 126.999 27c34.667 20 52 49.333 52 88
c0 69.333 -54.333 104 -163 104z" />
    <glyph glyph-name="S" unicode="S" horiz-adv-x="642" 
d="M330 -7c-90.667 0 -164.665 15.332 -221.998 45.999c-73.333 40 -110 102.667 -110 188v44h97v-41c0 -100 78.667 -150 236 -150c57.333 0 104 8 140 24c42.667 18 64 45 64 81c0 26 -6.66699 45 -20 57s-37 22.667 -71 32c-20 5.33301 -67 15.333 -141 30
c-87.333 17.333 -147 33.666 -179 48.999c-68.667 32.667 -103 82 -103 148c0 122.667 96.667 184 290 184c201.333 0 303.333 -82.333 306 -247h-94c-4.66699 70.667 -25.334 115.334 -62.001 134.001c-32.667 17.333 -82.667 26 -150 26c-129.333 0 -194 -32.333 -194 -97
c0 -30.667 15.333 -53.667 46 -69c25.333 -12 69.666 -23.333 132.999 -34c124 -20.667 207.333 -43 250 -67c56.667 -32 85 -81.333 85 -148c0 -67.333 -35.667 -117.666 -107 -150.999c-54 -26 -118.667 -39 -194 -39z" />
    <glyph glyph-name="T" unicode="T" horiz-adv-x="545" 
d="M321 591v-591h-96v591h-260v87h615v-87h-259z" />
    <glyph glyph-name="U" unicode="U" horiz-adv-x="664" 
d="M560 54c-50.667 -40.667 -126.666 -61 -227.999 -61c-208 0 -312 89.333 -312 268v417h96v-417c0 -61.333 17.167 -106.833 51.5 -136.5s89.166 -44.5 164.499 -44.5c74.667 0 129.667 15 165 45c34 28 51 72.333 51 133v420h96v-419c0 -92 -28 -160.333 -84 -205z" />
    <glyph glyph-name="V" unicode="V" horiz-adv-x="628" 
d="M354 0h-71l-328 678h103l260 -537l253 537h103z" />
    <glyph glyph-name="W" unicode="W" horiz-adv-x="970" 
d="M704 0h-73l-144 309l-140 -309h-73l-315 678h103l248 -534l124 277l-118 257h103l248 -534l241 534h103z" />
    <glyph glyph-name="X" unicode="X" horiz-adv-x="604" 
d="M560 0l-256 280l-259 -280h-125l320 348l-305 330h127l242 -263l244 263h126l-306 -330l316 -348h-124z" />
    <glyph glyph-name="Y" unicode="Y" horiz-adv-x="626" 
d="M362 320v-320h-96v320l-351 358h127l271 -275l272 275h126z" />
    <glyph glyph-name="Z" unicode="Z" horiz-adv-x="626" 
d="M-1 0v72l480 519h-450v87h591v-71l-480 -520h488v-87h-629z" />
    <glyph glyph-name="bracketleft" unicode="[" horiz-adv-x="233" 
d="M64 -168v902h193v-89h-97v-724h97v-89h-193z" />
    <glyph glyph-name="backslash" unicode="\" horiz-adv-x="350" 
d="M306 0l-375 694h105l375 -694h-105z" />
    <glyph glyph-name="bracketright" unicode="]" horiz-adv-x="233" 
d="M168 -168h-192v89h97l1 9l-1 715h-97v89h194z" />
    <glyph glyph-name="asciicircum" unicode="^" horiz-adv-x="298" 
d="M192 511l-45 48l-45 -48h-113l127 135h60l134 -135h-118z" />
    <glyph glyph-name="underscore" unicode="_" 
d="M-38 -119v48h601v-48h-601z" />
    <glyph glyph-name="grave" unicode="`" horiz-adv-x="193" 
d="M123 539c-27.333 15.333 -61.999 36.333 -103.999 63c-19.333 13.333 -29 26 -29 38c0 10 7.66699 18.333 23 25c21.333 9.33301 41.666 8 60.999 -4c22.667 -12.667 55.667 -33 99 -61c20 -14.667 30 -27.667 30 -39c0 -10 -7.66699 -18.333 -23 -25
c-17.333 -8 -36.333 -7 -57 3z" />
    <glyph glyph-name="a" unicode="a" horiz-adv-x="564" 
d="M441 -1v45.998c-46.667 -37.333 -107 -56 -181 -56c-84 0 -150.667 25 -200 75c-46 46.667 -69 106.334 -69 179.001c0 74.667 23.333 135.334 70 182.001c50 50 117.667 75 203 75c70.667 0 129.667 -18 177 -54v52h96v-499h-96zM259 414.998
c-54.667 0 -97.667 -16.667 -129 -50c-28.667 -31.333 -43 -72 -43 -122s14.333 -90 43 -120c30.667 -32.667 73.667 -49 129 -49s99.5 16 132.5 48s49.5 72.333 49.5 121c0 53.333 -15.5 95.333 -46.5 126s-76.167 46 -135.5 46z" />
    <glyph glyph-name="b" unicode="b" horiz-adv-x="564" 
d="M495 65c-49.333 -50 -117.002 -75 -203.002 -75c-68 0 -126.333 19.667 -175 59v-50h-96v679h96v-216c46.667 37.333 105.334 56 176.001 56c86.667 0 154.334 -26 203.001 -78c45.333 -48 68 -111 68 -189c0 -76.667 -23 -138.667 -69 -186zM425.998 380
c-30 34 -73 51 -129 51c-120 0 -180 -60.333 -180 -181c0 -50.667 16.333 -92.167 49 -124.5s76.667 -48.5 132 -48.5s98 16.667 128 50c28.667 31.333 43 73 43 125c0 54 -14.333 96.667 -43 128z" />
    <glyph glyph-name="c" unicode="c" 
d="M430 26c-44 -24.667 -96 -37 -156 -37c-84.667 0 -152.334 22.667 -203.001 68s-76 105 -76 179c0 78.667 25.833 142.334 77.5 191.001s122.5 73 212.5 73c54.667 0 102.667 -11.667 144 -35c46 -26 78.667 -71.667 98 -137l-88 -40
c-13.333 48 -31.833 81.167 -55.5 99.5s-57.167 27.5 -100.5 27.5c-61.333 0 -108.5 -16.333 -141.5 -49s-49.5 -76 -49.5 -130c0 -50 15.333 -89 46 -117c32 -30 77 -45 135 -45c40.667 0 75.834 8.5 105.501 25.5s50.5 54.167 62.5 111.5l92 -36
c-18.667 -70.667 -53 -120.334 -103 -149.001z" />
    <glyph glyph-name="d" unicode="d" horiz-adv-x="564" 
d="M441 -1v48c-46.667 -38.667 -107 -58 -181 -58c-84 0 -150.667 26 -200 78c-46 48 -69 109.667 -69 185c0 77.333 23.333 140 70 188c49.333 52 117 78 203 78c70.667 0 129.667 -18.667 177 -56v216h96v-679h-96zM259 431c-54 0 -96.167 -16.833 -126.5 -50.5
s-45.5 -76.5 -45.5 -128.5s14.333 -93.667 43 -125c30.667 -34 73.667 -51 129 -51s99.5 16.667 132.5 50s49.5 75.333 49.5 126c0 55.333 -15.5 99 -46.5 131s-76.167 48 -135.5 48z" />
    <glyph glyph-name="e" unicode="e" 
d="M86 206c11.333 -88 69.999 -132 175.999 -132c86.667 0 145 36.333 175 109h99c-28 -80.667 -67.667 -134 -119 -160c-44.667 -22.667 -97 -34 -157 -34c-88.667 0 -156.667 23.667 -204 71c-45.333 44.667 -68 105.667 -68 183c0 74 25 135.333 75 184
s117.333 73 202 73c82.667 0 149.334 -21.667 200.001 -65s76 -101.333 76 -174v-54zM392.999 372c-30.667 28.667 -73.333 43 -128 43s-97.667 -14.333 -129 -43c-24 -22 -39.667 -49 -47 -81h348c-6 32 -20.667 59 -44 81z" />
    <glyph glyph-name="f" unicode="f" horiz-adv-x="267" 
d="M161 468l-0.000976562 -9.00098h111v-88h-111v-372h-96v372h-73v88h73v9c0 132 99.667 198 299 198v-86c-77.333 0 -131.666 -10 -162.999 -30c-26.667 -17.333 -40 -44.666 -40 -81.999z" />
    <glyph glyph-name="g" unicode="g" horiz-adv-x="545" 
d="M266 -179c-64 0 -116.67 12 -158.003 36c-53.333 30 -82.666 87.333 -87.999 172h95c4.66699 -46 19.334 -78 44.001 -96c22 -16.667 58 -25 108 -25c58 0 99.833 10.333 125.5 31s38.5 52 38.5 94v9c-48.667 -35.333 -106.667 -53 -174 -53
c-59.333 0 -110.666 13.333 -153.999 40c-74 46 -111 117.333 -111 214c0 75.333 24.333 137 73 185s115 72 199 72c65.333 0 121 -17.667 167 -53v42h96v-457c0 -70 -23.333 -123 -70 -159c-44 -34.667 -107.667 -52 -191 -52zM261.997 413c-53.333 0 -95.5 -16 -126.5 -48
s-46.5 -72.667 -46.5 -122c0 -50 14.333 -90.333 43 -121s69.667 -46 123 -46c55.333 0 98.5 15 129.5 45s46.5 70 46.5 120c0 48.667 -15.333 89.5 -46 122.5s-71.667 49.5 -123 49.5z" />
    <glyph glyph-name="h" unicode="h" 
d="M407 0v325.001c0 70.667 -44 106 -132 106c-50 0 -88.833 -13.667 -116.5 -41s-41.5 -63.333 -41.5 -108v-282h-96v678h96v-204c42 29.333 94.333 44 157 44c64 0 116.667 -14.667 158 -44c47.333 -32.667 71 -79.334 71 -140.001v-334h-96z" />
    <glyph glyph-name="i" unicode="i" horiz-adv-x="136" 
d="M67 541c-21.333 0 -36.666 12 -45.999 36v74c11.333 24 26.666 36 45.999 36c15.333 0 32 -10.333 50 -31v-85c-17.333 -20 -34 -30 -50 -30zM21 0v508h96v-508h-96z" />
    <glyph glyph-name="j" unicode="j" horiz-adv-x="136" 
d="M67 539c-21.333 0 -36.666 12 -45.999 36v76c11.333 24 26.666 36 45.999 36c15.333 0 32 -10.333 50 -31v-87c-17.333 -20 -34 -30 -50 -30zM-186 -179v88c76.667 0 130.667 11 162 33c28 19.333 42 51 42 95v467h96v-468c0 -143.333 -100 -215 -300 -215z" />
    <glyph glyph-name="k" unicode="k" horiz-adv-x="532" 
d="M281 300l305 -300h-131l-252 248l-86 -57v-191h-96v678h96v-379l313 210l168 -4z" />
    <glyph glyph-name="l" unicode="l" horiz-adv-x="136" 
d="M21 0v678h96v-678h-96z" />
    <glyph glyph-name="m" unicode="m" horiz-adv-x="817" 
d="M700 0l0.00195312 313.001c0 36 -8.5 62 -25.5 78s-44.5 24 -82.5 24c-42.667 0 -75.834 -10.333 -99.501 -31s-35.5 -48.334 -35.5 -83.001v-301h-96v313c0 36 -8.83301 62 -26.5 78s-45.834 24 -84.501 24c-42.667 0 -76 -14.333 -100 -43
c-22 -26 -33 -59.333 -33 -100v-272h-96v490h96v-30c39.333 26.667 87 40 143 40c68 0 120.667 -21 158 -63c38.667 42 96 63 172 63c66 0 116.833 -15.167 152.5 -45.5s53.5 -74.5 53.5 -132.5v-322h-96z" />
    <glyph glyph-name="n" unicode="n" 
d="M407 0v313c0 68 -44 102 -132 102c-50 0 -88.833 -13.167 -116.5 -39.5s-41.5 -60.833 -41.5 -103.5v-272h-96v490h96v-33c42 28.667 94.333 43 157 43c64 0 116.667 -14 158 -42c47.333 -32 71 -77.333 71 -136v-322h-96z" />
    <glyph glyph-name="o" unicode="o" horiz-adv-x="545" 
d="M272 -11c-86 0 -154.333 23.667 -205 71s-76 108.666 -76 183.999s25.667 136.833 77 184.5s120 71.5 206 71.5s154.333 -23.833 205 -71.5s76 -109.167 76 -184.5s-25.667 -136.666 -77 -183.999s-120 -71 -206 -71zM273 415
c-58.667 0 -104.168 -15.668 -136.501 -47.001s-48.5 -72.666 -48.5 -123.999c0 -50.667 16.333 -91.667 49 -123s78 -47 136 -47s103.5 15.667 136.5 47s49.5 72.333 49.5 123c0 52 -16.167 93.5 -48.5 124.5s-78.166 46.5 -137.499 46.5z" />
    <glyph glyph-name="p" unicode="p" horiz-adv-x="564" 
d="M496 50c-48.667 -52 -116.332 -78 -202.999 -78c-70 0 -128.667 19 -176 57v-197h-96v657h96v-45c47.333 37.333 105.666 56 174.999 56c86 0 153.667 -25 203 -75c46 -48 69 -110.333 69 -187c0 -78 -22.667 -140.667 -68 -188zM298.002 413
c-56 0 -100.166 -15.999 -132.499 -47.999s-48.5 -74 -48.5 -126c0 -119.333 60 -179 180 -179c55.333 0 98.333 16.667 129 50c28.667 31.333 43 73.666 43 126.999c0 52 -14.833 94.333 -44.5 127s-71.834 49 -126.501 49z" />
    <glyph glyph-name="q" unicode="q" horiz-adv-x="564" 
d="M440 -168l0.000976562 193c-45.333 -35.333 -106 -53 -182 -53c-82 0 -147.667 26.333 -197 79c-46.667 50 -70 112.333 -70 187c0 74 23.667 135.667 71 185c50 51.333 116.667 77 200 77c71.333 0 130.666 -18.667 177.999 -56v45h96v-657h-96zM257.001 413
c-54.667 0 -97 -17.001 -127 -51.001c-28 -31.333 -42 -73 -42 -125c0 -51.333 14.833 -93.666 44.5 -126.999s71.5 -50 125.5 -50c122 0 183 59 183 177c0 52 -16.333 94.333 -49 127s-77.667 49 -135 49z" />
    <glyph glyph-name="r" unicode="r" horiz-adv-x="318" 
d="M157 350c-26.667 -38 -40 -87.667 -40 -149v-201h-96v490h96v-45c47.333 36.667 118.333 55 213 55v-85c-85.333 0 -143 -21.667 -173 -65z" />
    <glyph glyph-name="s" unicode="s" horiz-adv-x="486" 
d="M393 16c-37.333 -19.333 -85.335 -28.998 -144.002 -28.998c-163.333 0 -245 75.333 -245 226h98c0 -52 11 -88.167 33 -108.5s60.333 -30.5 115 -30.5c83.333 0 125 21.333 125 64c0 26 -27.333 44.667 -82 56l-100 14c-112 16 -168 63 -168 141
c0 50.667 23.333 89.667 70 117c38.667 23.333 84.334 35 137.001 35c158 0 237.333 -68.667 238 -206h-99c0 44.667 -9.83301 75.667 -29.5 93s-54.5 26 -104.5 26c-33.333 0 -60.666 -6 -81.999 -18s-32 -27.667 -32 -47c0 -24.667 26.333 -41.334 79 -50.001
c17.333 -3.33301 52.333 -9.33301 105 -18c110.667 -17.333 166 -65 166 -143c0 -54.667 -26.667 -95.334 -80 -122.001z" />
    <glyph glyph-name="t" unicode="t" horiz-adv-x="263" 
d="M179 391v-391h-94l-2 391h-100v87h100v136h96v-136h101v-87h-101z" />
    <glyph glyph-name="u" unicode="u" 
d="M407 -2v34.001c-42.667 -28.667 -95 -43 -157 -43c-68 0 -122.333 15.333 -163 46c-44 33.333 -66 80.666 -66 141.999v311h96v-310c0 -69.333 44.333 -104 133 -104c104.667 0 157 50.333 157 151v263h96v-490h-96z" />
    <glyph glyph-name="v" unicode="v" horiz-adv-x="471" 
d="M282 0h-73l-260 488h110l185 -357l172 357h105z" />
    <glyph glyph-name="w" unicode="w" horiz-adv-x="771" 
d="M575 0h-76l-108 214l-100 -214h-75l-247 488h108l175 -354l85 188l-85 166h109l174 -354l161 354h105z" />
    <glyph glyph-name="x" unicode="x" horiz-adv-x="467" 
d="M420 0l-187 188l-186 -188h-128l251 252l-230 236h128l165 -173l169 173h126l-231 -236l251 -252h-128z" />
    <glyph glyph-name="y" unicode="y" 
d="M241 -179c-63.333 0 -116.001 11.999 -158.001 35.999c-52.667 30 -81.667 87.333 -87 172h95c4.66699 -46 19.334 -78 44.001 -96c22 -16.667 58 -25 108 -25c102.667 0 157 35.667 163 107c-42.667 -29.333 -94.667 -44 -156 -44c-66.667 0 -120.667 15.667 -162 47
c-44.667 34.667 -67 84 -67 148v322h96v-321c0 -72 44.333 -108 133 -108c104.667 0 157 52.333 157 157v272h96v-457c0 -69.333 -22.833 -121.666 -68.5 -156.999s-110.167 -53 -193.5 -53z" />
    <glyph glyph-name="z" unicode="z" horiz-adv-x="473" 
d="M-10 0v68l332 335h-302v85h446v-67l-332 -336h349v-85h-493z" />
    <glyph glyph-name="braceleft" unicode="{" horiz-adv-x="350" 
d="M243 -168c-38 0 -67 11.6719 -87 35.0049c-18.667 21.333 -28 50.666 -28 87.999v211c0 29.333 -3.33301 47.666 -10 54.999c-4 4 -26 14.333 -66 31v63c40 16 62 26 66 30c6.66699 7.33301 10 25.666 10 54.999v211c0 37.333 9.66699 67.166 29 89.499s48 33.5 86 33.5
h49v-89h-48c-8.66699 0 -14.167 -3.33301 -16.5 -10s-3.5 -22.334 -3.5 -47.001v-190c0 -54 -12.667 -92.333 -38 -115c25.333 -20.667 38 -59 38 -115v-189c0 -25.333 1.16699 -41.333 3.5 -48s7.83301 -10 16.5 -10h48v-89h-49z" />
    <glyph glyph-name="bar" unicode="|" horiz-adv-x="233" 
d="M69 -32v738h96v-738h-96z" />
    <glyph glyph-name="braceright" unicode="}" horiz-adv-x="350" 
d="M225 221c-6 -7.33301 -9 -25.6709 -9 -55.0039v-211c0 -37.333 -9.66699 -66.666 -29 -87.999c-20 -23.333 -49 -35 -87 -35h-48v89h47c8.66699 0 14.334 3.33301 17.001 10s4 22.667 4 48v189c0 56 12.333 94.333 37 115c-24.667 22.667 -37 61 -37 115v190
c0 24.667 -1.33301 40.334 -4 47.001s-8.33398 10 -17.001 10h-47v89h48c38 0 66.833 -11.167 86.5 -33.5s29.5 -52.166 29.5 -89.499v-211c0 -29.333 3 -47.666 9 -54.999c4 -4 26.333 -14 67 -30v-63c-40.667 -16.667 -63 -27 -67 -31z" />
    <glyph glyph-name="asciitilde" unicode="~" horiz-adv-x="548" 
d="M380 351c-24 0 -64.668 7.00098 -122.001 21.001c-48.667 12 -78.667 18 -90 18c-14 0 -24.333 -2.5 -31 -7.5s-12.334 -15.833 -17.001 -32.5h-108c11.333 42 31.333 70 60 84s61.334 21 98.001 21c22.667 0 62.334 -7.33301 119.001 -22c48.667 -12 79 -18 91 -18
c24.667 0 41 13.667 49 41h108c-11.333 -42.667 -31.333 -70.834 -60 -84.501s-61 -20.5 -97 -20.5z" />
    <glyph glyph-name="nonbreakingspace" unicode="&#xa0;" 
 />
    <glyph glyph-name="exclamdown" unicode="&#xa1;" horiz-adv-x="194" 
d="M98 436c-12.667 0 -23.834 3.83496 -33.501 11.502s-14.5 18.5 -14.5 32.5v58c0 13.333 4.66699 24.166 14 32.499s20.666 12.5 33.999 12.5c14.667 0 26.334 -4.33301 35.001 -13s13 -19.334 13 -32.001v-58c0 -13.333 -4.66699 -24 -14 -32s-20.666 -12 -33.999 -12z
M49 -94.998v523h96v-523h-96z" />
    <glyph glyph-name="cent" unicode="&#xa2;" 
d="M430 24c-44 -25.333 -96 -38.001 -156 -38.001c-36.667 0 -70.667 4.66699 -102 14l-20 -36h-106l44 77c-63.333 46.667 -95 112.334 -95 197.001c0 80 25.833 144.667 77.5 194s122.5 74 212.5 74c18.667 0 37 -1.33301 55 -4l27 49h105l-44 -80
c46 -26 79 -72.667 99 -140l-87 -40c-15.333 51.333 -33.333 85 -54 101l-171 -313c18 -4.66699 37.333 -7 58 -7c40.667 0 75.667 8.66699 105 26s50.333 55.333 63 114l92 -37c-18.667 -72 -53 -122.333 -103 -151zM283 419.999c-61.333 0 -108.5 -16.5 -141.5 -49.5
s-49.5 -77.167 -49.5 -132.5c0 -48.667 14 -87 42 -115l162 296c-4.66699 0.666992 -9 1 -13 1z" />
    <glyph glyph-name="currency" unicode="&#xa4;" horiz-adv-x="584" 
d="M480 185l-102 76.9971c-28.667 -13.333 -60.667 -20 -96 -20s-67.333 7 -96 21l-103 -78l-74 53l107 81c-14 20.667 -21 43.334 -21 68.001c0 26 7.33301 49.667 22 71l-108 81l74 53l104 -79c28.667 13.333 60 20 94 20c35.333 0 67 -6.66699 95 -20l104 79l74 -53
l-108 -81c16 -21.333 24 -44.666 24 -69.999s-7.66699 -48.666 -23 -69.999l107 -80zM352 430.997c-19.333 13.333 -42.667 19.999 -70 19.999s-49.5 -6.16699 -66.5 -18.5s-25.5 -27.166 -25.5 -44.499c0 -18 8.66699 -33.167 26 -45.5s39.333 -18.5 66 -18.5
c27.333 0 49.833 6.16699 67.5 18.5s26.5 27.166 26.5 44.499c0 18.667 -8 33.334 -24 44.001z" />
    <glyph glyph-name="yen" unicode="&#xa5;" horiz-adv-x="645" 
d="M372 317h212v-88h-212v-26h212v-87h-212v-116h-96v116h-212v87h212v26h-212v88h212v3l-351 358h127l271 -275l272 275h126z" />
    <glyph glyph-name="brokenbar" unicode="&#xa6;" horiz-adv-x="233" 
d="M69 340v356h96v-356h-96zM69 -23v356h96v-356h-96z" />
    <glyph glyph-name="section" unicode="&#xa7;" horiz-adv-x="584" 
d="M453 150c35.333 -25.333 53 -58.665 53 -99.998c0 -52 -23.333 -92.667 -70 -122c-38.667 -24 -84.334 -36 -137.001 -36c-156.667 0 -235 70.333 -235 211h96c0 -46 9.83301 -78 29.5 -96s54.5 -27 104.5 -27c77.333 0 116 23.333 116 70c0 26 -20.333 42.667 -61 50
l-156 30c-36.667 10 -67.334 27.667 -92.001 53c-29.333 29.333 -42.333 62.333 -39 99c4 48 26.667 84.667 68 110c-35.333 25.333 -53 59 -53 101c0 52 23 92.667 69 122c38.667 24 84.334 36 137.001 36c157.333 0 236.333 -70.667 237 -212h-96c0 46.667 -10 79 -30 97
s-55 27 -105 27c-34 0 -61.833 -6.16699 -83.5 -18.5s-32.5 -29.5 -32.5 -51.5c0 -18.667 12.667 -32.667 38 -42c12.667 -4.66699 53.334 -13.334 122.001 -26.001c50 -4.66699 92 -18.334 126 -41.001c42.667 -27.333 64 -64.333 64 -111
c0 -54.667 -23.333 -95.667 -70 -123zM281 339.001c-66.667 0 -107.003 -16.333 -121.003 -49v-7c0 -24 14.333 -43.333 43 -58c26.667 -14 59.334 -21 98.001 -21c80.667 0 122.334 21.667 125.001 65c-13.333 46.667 -61.666 70 -144.999 70z" />
    <glyph glyph-name="dieresis" unicode="&#xa8;" horiz-adv-x="214" 
d="M165 547c-31.333 0 -47 9.33301 -47 28v22c0 18 15.667 27 47 27c32.667 0 49 -9 49 -27v-22c0 -18.667 -16.333 -28 -49 -28zM50 547c-32 0 -48 9.33301 -48 28v22c0 18 16 27 48 27s48 -9 48 -27v-22c0 -18.667 -16 -28 -48 -28z" />
    <glyph glyph-name="copyright" unicode="&#xa9;" horiz-adv-x="560" 
d="M285 236c-76 0 -140.001 18.333 -192.001 55c-58 41.333 -87 95.333 -87 162c0 68 30 122.667 90 164c54 36.667 116.333 55 187 55c71.333 0 134 -18 188 -54c61.333 -41.333 92 -96 92 -164s-30.333 -122.667 -91 -164c-53.333 -36 -115.666 -54 -186.999 -54z
M284.999 586c-50.667 0 -93.5 -12.5 -128.5 -37.5s-52.5 -56.5 -52.5 -94.5s17.333 -69.667 52 -95s77 -38 127 -38c50.667 0 93.667 12.5 129 37.5s53 56.5 53 94.5c0 38.667 -17.5 70.5 -52.5 95.5s-77.5 37.5 -127.5 37.5zM292.999 301c-52.667 0 -95.667 13 -129 39
c-36 27.333 -54 64.333 -54 111c0 46 17.667 82.333 53 109c33.333 25.333 75.333 38 126 38c93.333 0 149 -49.333 167 -148h-98c-6 23.333 -13.667 39.5 -23 48.5s-25 13.5 -47 13.5c-53.333 0 -80 -20.333 -80 -61c0 -42.667 28.333 -64 85 -64
c19.333 0 34.333 6.33301 45 19c7.33301 8.66699 15 24 23 46h103c-18.667 -54 -41.5 -92.667 -68.5 -116s-61.167 -35 -102.5 -35z" />
    <glyph glyph-name="ordfeminine" unicode="&#xaa;" horiz-adv-x="378" 
d="M275 348l-0.00292969 10c-25.333 -10.667 -54.666 -16 -87.999 -16c-56 0 -100.167 15 -132.5 45s-48.5 67.667 -48.5 113c0 46 16.333 83.833 49 113.5s77.334 44.5 134.001 44.5c32.667 0 61.334 -5 86.001 -15v14h98v-309h-98zM186.997 576
c-55.333 0 -83 -25.333 -83 -76s27.667 -76 83 -76c27.333 0 48.833 7.16699 64.5 21.5s23.5 32.5 23.5 54.5c0 24 -7.16699 42.667 -21.5 56s-36.5 20 -66.5 20z" />
    <glyph glyph-name="guillemotleft" unicode="&#xab;" horiz-adv-x="463" 
d="M210 249v49l224 124v-92l-98 -56l98 -56v-89zM34 249v49l224 124v-92l-98 -56l98 -56v-89z" />
    <glyph glyph-name="logicalnot" unicode="&#xac;" horiz-adv-x="602" 
d="M482 134v97h-470v71h566v-168h-96z" />
    <glyph glyph-name="minus" unicode="&#xad;" horiz-adv-x="592" 
d="M13 231v19h552v-19h-552z" />
    <glyph glyph-name="minus" unicode="&#x2212;" horiz-adv-x="592" 
d="M13 231v19h552v-19h-552z" />
    <glyph glyph-name="registered" unicode="&#xae;" horiz-adv-x="543" 
d="M274 236c-72 0 -134.332 17.666 -186.999 52.999c-61.333 40.667 -92 95.334 -92 164.001c0 68 30.333 122.667 91 164c54 36.667 116.333 55 187 55c71.333 0 133.666 -18 186.999 -54c61.333 -41.333 92 -96 92 -164c0 -69.333 -30.333 -124.333 -91 -165
c-52 -35.333 -114.333 -53 -187 -53zM274.001 585.999c-51.333 0 -94.168 -12.333 -128.501 -37s-51.5 -56.334 -51.5 -95.001c0 -39.333 16.833 -71.333 50.5 -96s76.5 -37 128.5 -37c51.333 0 94.333 12.333 129 37s52 56.334 52 95.001c0 39.333 -17.167 71.333 -51.5 96
s-77.166 37 -128.499 37zM403.999 447.999c10 -14 15 -30.333 15 -49v-90h-99v89c0 4.66699 -7.66699 7 -23 7h-50v-96h-98v285h151c81.333 0 122 -30.667 122 -92c0 -21.333 -6 -39.333 -18 -54zM299.999 507.999h-53v-17h48c19.333 0 29 3.33301 29 10
c0 4.66699 -8 7 -24 7z" />
    <glyph glyph-name="macron" unicode="&#xaf;" horiz-adv-x="313" 
d="M-3 597v19h320v-19h-320z" />
    <glyph glyph-name="macron" unicode="&#x2c9;" horiz-adv-x="313" 
d="M-3 597v19h320v-19h-320z" />
    <glyph glyph-name="degree" unicode="&#xb0;" horiz-adv-x="420" 
d="M210 385c-48.667 0 -91 11.666 -127 34.999c-40 25.333 -60 58.666 -60 99.999c0 40.667 19.667 74 59 100c36.667 23.333 79 35 127 35c48.667 0 91 -11.333 127 -34c40.667 -25.333 61 -58.666 61 -99.999c0 -43.333 -21.333 -77.666 -64 -102.999
c-36.667 -22 -77.667 -33 -123 -33zM210 576.999c-27.333 0 -49.499 -5.5 -66.499 -16.5s-25.5 -24.167 -25.5 -39.5c0 -16 8.5 -29.667 25.5 -41s39.167 -17 66.5 -17s49.666 5.5 66.999 16.5s26 24.5 26 40.5c0 20 -11.333 35 -34 45c-17.333 8 -37 12 -59 12z" />
    <glyph glyph-name="plusminus" unicode="&#xb1;" horiz-adv-x="630" 
d="M363 204v-148h-96v148h-191v84h191v145h96v-145h192v-84h-192zM77 -3v85h479v-85h-479z" />
    <glyph glyph-name="twosuperior" unicode="&#xb2;" horiz-adv-x="392" 
d="M-2 256c0 58 17.001 106.334 51.001 145.001c22.667 27.333 57 52.666 103 75.999c23.333 10 55 25 95 45c17.333 10 27 17.667 29 23c0 21.333 -26 32 -78 32c-34.667 0 -58.834 -7 -72.501 -21s-20.5 -41 -20.5 -81h-99c0 124.667 62.667 187 188 187
c120 0 180 -39.667 180 -119c0 -38.667 -29.333 -72 -88 -100l-87 -42c-41.333 -20 -70 -40.333 -86 -61h281v-84h-396z" />
    <glyph glyph-name="threesuperior" unicode="&#xb3;" horiz-adv-x="426" 
d="M218 252c-56 0 -102.667 10.332 -140 30.999c-46.667 25.333 -70 64 -70 116v43h100v-50c0 -16.667 9.66699 -30 29 -40s45 -15 77 -15c31.333 0 56.833 4.16699 76.5 12.5s29.5 19.5 29.5 33.5c0 29.333 -31 44 -93 44h-73v85h74c56 0 84 11.333 84 34
c0 20.667 -29.667 31 -89 31c-39.333 0 -66.166 -6.83301 -80.499 -20.5s-21.5 -39.167 -21.5 -76.5h-99c0 121.333 66.667 182 200 182c44.667 0 83.667 -7 117 -21c48 -20 72 -51.667 72 -95c0 -30.667 -11.333 -56 -34 -76c28 -21.333 42 -50.333 42 -87
c0 -45.333 -23.333 -79.666 -70 -102.999c-36.667 -18.667 -80.334 -28 -131.001 -28z" />
    <glyph glyph-name="acute" unicode="&#xb4;" horiz-adv-x="212" 
d="M83 538c-10 -6 -21.333 -8.99902 -34 -8.99902s-24 3.5 -34 10.5s-15 14.833 -15 23.5c-0 9.33301 5.33301 17.666 16 24.999l113 75c10.667 6.66699 22 10 34 10c13.333 0 25 -3.5 35 -10.5s15 -15.167 15 -24.5s-5.66699 -18 -17 -26z" />
    <glyph glyph-name="mu1" unicode="&#xb5;" 
d="M401 -1c0 -6 27 -8.99902 81 -8.99902v-90c-56 0 -97 6 -123 18c-30 13.333 -49 31.666 -57 54.999c-9.33301 -0.666992 -19 -1 -29 -1c-62 0 -114 14.667 -156 44v-187h-96v659h96v-272c0 -104.667 52 -157 156 -157c89.333 0 134 36 134 108v321h96v-322
c0 -79.333 -34 -135.333 -102 -168v1z" />
    <glyph glyph-name="paragraph" unicode="&#xb6;" horiz-adv-x="496" 
d="M376 -133l0.000976562 723.001h-11v-723h-96v351c-59.333 3.33301 -111.333 22.333 -156 57c-58.667 44 -88 101.667 -88 173s29.667 128.666 89 171.999c54 39.333 117.667 59 191 59c3.33301 0 6.66602 -0.333008 9.99902 -1h157v-811h-96z" />
    <glyph glyph-name="periodcentered" unicode="&#xb7;" horiz-adv-x="209" 
d="M119 280c-32 0 -48 9.66699 -48 29v29c0 19.333 16 29 48 29s48 -9.66699 48 -29v-29c0 -19.333 -16 -29 -48 -29z" />
    <glyph glyph-name="periodcentered" unicode="&#x2219;" horiz-adv-x="209" 
d="M119 280c-32 0 -48 9.66699 -48 29v29c0 19.333 16 29 48 29s48 -9.66699 48 -29v-29c0 -19.333 -16 -29 -48 -29z" />
    <glyph glyph-name="cedilla" unicode="&#xb8;" horiz-adv-x="259" 
d="M160 -101c-26 1.33301 -42.666 1.33398 -49.999 0.000976562l-3 -1c-3.33301 -0.666992 -17.333 -5.33398 -42 -14.001v50l11 75h93l-2 -37c64.667 -5.33301 97 -29.333 97 -72c0 -49.333 -47 -74 -141 -74c-28 0 -77.333 7.33301 -148 22l49 66
c45.333 -10.667 77.333 -16 96 -16c23.333 0 36.666 0.333008 39.999 1z" />
    <glyph glyph-name="onesuperior" unicode="&#xb9;" horiz-adv-x="287" 
d="M146 260v274l-63 -34h-182l275 153h71v-393h-101z" />
    <glyph glyph-name="ordmasculine" unicode="&#xba;" horiz-adv-x="413" 
d="M346 390c-37.333 -26.667 -84.334 -39.999 -141.001 -39.999c-56 0 -102.667 13.667 -140 41s-56 64.666 -56 111.999c0 48 19.667 86 59 114c36.667 26 83.334 39 140.001 39c56 0 102.333 -13.333 139 -40c39.333 -28 59 -65.667 59 -113s-20 -85 -60 -113z
M205.999 578.001c-32.667 0 -58 -6.83301 -76 -20.5s-27 -31.834 -27 -54.501c0 -50 34.333 -75 103 -75c70.667 0 106 25 106 75c0 22.667 -9.33301 40.834 -28 54.501s-44.667 20.5 -78 20.5z" />
    <glyph glyph-name="guillemotright" unicode="&#xbb;" horiz-adv-x="458" 
d="M210 129v89l97 56l-97 56v92l224 -124v-49zM34 129v89l97 56l-97 56v92l224 -124v-49z" />
    <glyph glyph-name="onequarter" unicode="&#xbc;" horiz-adv-x="816" 
d="M702 123v-123h-95v123h-293l198 305h109l-142 -220h128v222l95 -5v-217h92v-85h-92zM245 0h-105l371 694h105zM169 236v299l-65 -38h-171l263 158h69v-419h-96z" />
    <glyph glyph-name="onehalf" unicode="&#xbd;" horiz-adv-x="803" 
d="M400 0c2 103.333 51.667 180.001 149 230.001l87 44c28 17.333 42 28.666 42 33.999c0 26 -26.667 39 -80 39c-35.333 0 -60 -7.66699 -74 -23s-21.333 -45 -22 -89h-94c1.33301 131.333 63.333 197 186 197c118 0 177 -41.667 177 -125c0 -40.667 -27 -74.667 -81 -102
l-89 -47c-45.333 -24.667 -76 -49 -92 -73h282v-85h-391zM234 0.000976562h-105l372 694h105zM158 236.001v298l-64 -37h-172l263 158h69v-419h-96z" />
    <glyph glyph-name="threequarters" unicode="&#xbe;" horiz-adv-x="906" 
d="M793 123v-123h-95v123h-293l199 305h109l-143 -220h128v222l95 -5v-217h92v-85h-92zM336 0h-105l372 694h105zM229 229c-138 0 -206.999 51.6689 -206.999 155.002v43h94v-51c0 -19.333 10.167 -34.5 30.5 -45.5s46.833 -16.5 79.5 -16.5c31.333 0 57.333 4.66699 78 14
s31 22.333 31 39c0 34 -32.333 51 -97 51h-70v85h71c58 0 87 12.667 87 38s-30.667 38 -92 38c-39.333 0 -66.5 -7.33301 -81.5 -22s-22.833 -42.334 -23.5 -83.001h-94c2 126 68 189 198 189c45.333 0 84 -7 116 -21c47.333 -20.667 71 -54.334 71 -101.001
c0 -32.667 -12.667 -59.667 -38 -81c31.333 -23.333 47 -54.333 47 -93c0 -46.667 -23 -82.667 -69 -108c-36.667 -20 -80.334 -30 -131.001 -30z" />
    <glyph glyph-name="questiondown" unicode="&#xbf;" 
d="M256 451c-13.333 0 -24.5 4.16504 -33.5 12.498s-13.5 18.833 -13.5 31.5v59c0 12.667 4.16699 23.334 12.5 32.001s19.833 13 34.5 13c13.333 0 24.833 -4.16699 34.5 -12.5s14.5 -19.166 14.5 -32.499v-59c0 -14 -5 -24.833 -15 -32.5s-21.333 -11.5 -34 -11.5z
M418 -49.002c-45.333 -30.667 -102.666 -46 -171.999 -46c-62.667 0 -116.334 13 -161.001 39c-54.667 32 -82 78.333 -82 139c0 43.333 17.667 84 53 122l98 88c36 33.333 54 65 54 95v56h97v-52c0 -68.667 -38 -131.334 -114 -188.001c-37.333 -28 -62 -49.833 -74 -65.5
s-18 -34.167 -18 -55.5c0 -30 13.667 -52.667 41 -68s63 -23 107 -23c54.667 0 94.667 12.333 120 37c28 26.667 45.667 74.334 53 143.001l91 -52c-12 -78.667 -43 -135 -93 -169z" />
    <glyph glyph-name="Agrave" unicode="&#xc0;" horiz-adv-x="676" 
d="M424 663c-8 -4.66699 -16.334 -6.99707 -25.001 -6.99707c-13.333 0 -25.666 4.33301 -36.999 13l-114 114c-9.33301 9.33301 -14 19.666 -14 30.999s5 21.666 15 30.999s21.333 14 34 14c13.333 0 25 -5.33301 35 -16l82 -75c30.667 -30.667 46 -55 46 -73
c0 -12.667 -7.33301 -23.334 -22 -32.001zM603.999 0.00292969l-97 204h-334l-99 -204h-108l340 693h75l328 -693h-105zM342.999 549.003l-126 -256h248z" />
    <glyph glyph-name="Aacute" unicode="&#xc1;" horiz-adv-x="676" 
d="M319 672c-10 -10 -21.668 -15 -35.001 -15s-25 4.5 -35 13.5s-15 19.5 -15 31.5c0 11.333 4.66699 21.666 14 30.999l114 112c10.667 10.667 22.667 16 36 16c12.667 0 23.834 -4.5 33.501 -13.5s14.5 -19.5 14.5 -31.5c0 -11.333 -4.66699 -21.666 -14 -30.999z
M603.999 0l-97 205h-334l-99 -205h-108l340 693h75l328 -693h-105zM342.999 549l-126 -256h248z" />
    <glyph glyph-name="Acircumflex" unicode="&#xc2;" horiz-adv-x="676" 
d="M407 652l-68 84l-68 -84h-114l153 195h59l156 -195h-118zM604 0l-97 204h-334l-99 -204h-108l340 692h75l328 -692h-105zM343 549l-126 -256h248z" />
    <glyph glyph-name="Atilde" unicode="&#xc3;" horiz-adv-x="676" 
d="M415 663c-17.333 0 -46.002 9.66699 -86.002 29c-30 14.667 -46.667 22 -50 22c-6 0 -10.333 -8.33301 -13 -25c0 -2 -1 -20 -3 -54l-89 55c0 38.667 11.667 67.334 35 86.001c21.333 17.333 45.333 26 72 26c13.333 0 33.333 -5.66699 60 -17l60 -28
c6 -2.66699 10.667 -4.33398 14 -5.00098c6 0 10.333 7.66699 13 23c0.666992 2.66699 2 20 4 52l90 -49c-3.33301 -40 -15.166 -69.167 -35.499 -87.5s-44.166 -27.5 -71.499 -27.5zM603.998 0l-97 203h-334l-99 -203h-108l340 690h75l328 -690h-105zM342.998 547
l-126 -255h248z" />
    <glyph glyph-name="Adieresis" unicode="&#xc4;" horiz-adv-x="676" 
d="M398 658c-14.667 0 -26.167 4.49902 -34.5 13.499s-12.5 19.5 -12.5 31.5v50c0 12.667 4.16699 23.5 12.5 32.5s19.833 13.5 34.5 13.5c13.333 0 24.833 -4.16699 34.5 -12.5s14.5 -19.5 14.5 -33.5v-50c0 -13.333 -4.83301 -24.166 -14.5 -32.499
s-21.167 -12.5 -34.5 -12.5zM283 657.999c-13.333 0 -24.666 4.16797 -33.999 12.501s-14 19.166 -14 32.499v50c0 14 4.66699 25.167 14 33.5s20.666 12.5 33.999 12.5c14.667 0 26.334 -4.5 35.001 -13.5s13 -19.833 13 -32.5v-50c0 -12 -4.33301 -22.5 -13 -31.5
s-20.334 -13.5 -35.001 -13.5zM604 0l-97 203h-334l-99 -203h-108l340 689h75l328 -689h-105zM343 546l-126 -255h248z" />
    <glyph glyph-name="Aring" unicode="&#xc5;" horiz-adv-x="676" 
d="M339 668c-30.667 0 -57.5 9.33203 -80.5 27.999s-34.5 43.334 -34.5 74.001s11.5 55.5 34.5 74.5s49.833 28.5 80.5 28.5c31.333 0 58 -9 80 -27c24 -20 36 -45.333 36 -76c0 -30 -11.5 -54.5 -34.5 -73.5s-50.167 -28.5 -81.5 -28.5zM604 -0.000976562l-97 205h-334
l-99 -205h-108l340 694h75l328 -694h-105zM339 781.999c-11.333 0 -17 -3.99902 -17 -11.999s5.66699 -12 17 -12c12.667 0 19 4 19 12c0 3.33301 -1.5 6.16602 -4.5 8.49902s-7.83301 3.5 -14.5 3.5zM343 550l-126 -256h248z" />
    <glyph glyph-name="AE" unicode="&#xc6;" horiz-adv-x="1077" 
d="M553 0v309h-222l-303 -309h-126l666 678h496v-87h-414v-194h46v-1h315v-87h-361v-222h419v-87h-516zM418 397h135l1 136z" />
    <glyph glyph-name="Ccedilla" unicode="&#xc7;" horiz-adv-x="719" 
d="M640 483c-30 41.333 -63.333 70.501 -100 87.501s-82.667 25.5 -138 25.5c-90 0 -161.167 -23.833 -213.5 -71.5s-78.5 -112.167 -78.5 -193.5c0 -80.667 25 -144.667 75 -192s118.667 -71 206 -71c52.667 0 97.834 8.66699 135.501 26s72.834 46.666 105.501 87.999
l81 -50c-81.333 -102 -188.333 -153 -321 -153c-114.667 0 -206.334 31.5 -275.001 94.5s-103 147.5 -103 253.5c0 109.333 35.167 196.333 105.5 261s164.5 97 282.5 97c137.333 0 243.666 -50.667 318.999 -152zM374 -173.999c-28 0 -77 9.66895 -147 29.002l49 81
c45.333 -14 77 -21 95 -21c28.667 0 43 3.66699 43 11c0 -0.666992 -8.33301 -0.333984 -25 0.999023c-14 1.33301 -38.333 -6 -73 -22v63l10 97h94l-2 -51c64.667 -6.66699 97 -37.334 97 -92.001c0 -64 -47 -96 -141 -96z" />
    <glyph glyph-name="Egrave" unicode="&#xc8;" horiz-adv-x="564" 
d="M368 655c-8.66699 -6 -18.333 -9 -29 -9c-14 0 -26 5 -36 15l-82 75c-30 30 -45 54 -45 72c0 12 6.66699 22.333 20 31c9.33301 6.66699 19 10 29 10c14 0 25.667 -5 35 -15l82 -75c30 -30 45 -54 45 -72c0 -12 -6.33301 -22.667 -19 -32zM20.001 0v692h561v-88h-466
v-200h413v-88h-413v-227h471v-89h-566z" />
    <glyph glyph-name="Eacute" unicode="&#xc9;" horiz-adv-x="564" 
d="M261 661c-10 -10 -21.667 -15 -35 -15s-25 4.5 -35 13.5s-15 19.5 -15 31.5c0 11.333 4.66699 21.666 14 30.999l114 112c10 10 21.667 15 35 15c12.667 0 24 -4.5 34 -13.5s15 -19.5 15 -31.5c0 -11.333 -4.66699 -21.666 -14 -30.999zM20 0v692h561v-88h-466v-200h413
v-88h-413v-227h471v-89h-566z" />
    <glyph glyph-name="Ecircumflex" unicode="&#xca;" horiz-adv-x="564" 
d="M348 662l-68 83l-68 -83h-114l153 195h58l158 -195h-119zM20 0v693h561v-89h-466v-200h413v-88h-413v-227h471v-89h-566z" />
    <glyph glyph-name="Edieresis" unicode="&#xcb;" horiz-adv-x="564" 
d="M340 666c-13.333 0 -24.666 4.16797 -33.999 12.501s-14 19.166 -14 32.499v50c0 14 4.66699 25.167 14 33.5s20.666 12.5 33.999 12.5c14.667 0 26.334 -4.5 35.001 -13.5s13 -19.833 13 -32.5v-50c0 -12 -4.33301 -22.5 -13 -31.5s-20.334 -13.5 -35.001 -13.5z
M224 666.001c-14.667 0 -26.167 4.49902 -34.5 13.499s-12.5 19.5 -12.5 31.5v50c0 12.667 4.16699 23.5 12.5 32.5s19.833 13.5 34.5 13.5c13.333 0 24.833 -4.16699 34.5 -12.5s14.5 -19.5 14.5 -33.5v-50c0 -13.333 -4.83301 -24.166 -14.5 -32.499
s-21.167 -12.5 -34.5 -12.5zM20 0v689h561v-88h-466v-199h413v-87h-413v-227h471v-88h-566z" />
    <glyph glyph-name="Igrave" unicode="&#xcc;" horiz-adv-x="134" 
d="M152 669c-8.66699 -5.33301 -18 -7.99902 -28 -7.99902c-14 0 -26 5 -36 15l-113 112c-9.33301 9.33301 -14 19.666 -14 30.999c0 12 5 22.667 15 32s21.333 14 34 14c14 0 26 -5.33301 36 -16l81 -75c30.667 -30 46 -54 46 -72c0 -12.667 -7 -23.667 -21 -33z
M20 0.000976562v693h96v-693h-96z" />
    <glyph glyph-name="Iacute" unicode="&#xcd;" horiz-adv-x="134" 
d="M46 672c-10 -10 -21.667 -15.001 -35 -15.001s-25 4.5 -35 13.5s-15 19.5 -15 31.5c0 10.667 4.66699 20.667 14 30l113 113c10.667 10.667 22.667 16 36 16s25 -4.5 35 -13.5s15 -19.5 15 -31.5c0 -11.333 -5 -21.666 -15 -30.999zM20 -0.000976562v693h96v-693h-96z
" />
    <glyph glyph-name="Icircumflex" unicode="&#xce;" horiz-adv-x="134" 
d="M134 658l-68 84l-69 -84h-114l153 195h58l158 -195h-118zM20 0v693h96v-693h-96z" />
    <glyph glyph-name="Idieresis" unicode="&#xcf;" horiz-adv-x="134" 
d="M125 673c-15.333 0 -27 4.66797 -35 14.001s-12 20 -12 32v50c0 13.333 4.5 24.166 13.5 32.499s20.167 12.5 33.5 12.5c29.333 0 45.333 -14.333 48 -43l1 -52c0 -12.667 -4.5 -23.5 -13.5 -32.5s-20.833 -13.5 -35.5 -13.5zM10 673.001
c-14 0 -25.835 4.16699 -35.502 12.5s-14.5 19.5 -14.5 33.5v50c0 15.333 6 27 18 35c9.33301 6.66699 20 10 32 10c28.667 0 44.334 -14.333 47.001 -43l1 -52c0 -12 -4.16699 -22.667 -12.5 -32s-20.166 -14 -35.499 -14zM19.998 0.000976562v690h96v-690h-96z" />
    <glyph glyph-name="Eth" unicode="&#xd0;" horiz-adv-x="680" 
d="M562 85c-70 -56.667 -165 -85 -285 -85h-257v296h-38v88h38v294h295c118 0 208 -30.667 270 -92c60 -59.333 90 -142 90 -248c0 -108.667 -37.667 -193 -113 -253zM516 525c-44 44 -111.333 66 -202 66h-198v-207h198v-88h-198v-209h164c96 0 169.833 21.167 221.5 63.5
s77.5 104.833 77.5 187.5s-21 145 -63 187z" />
    <glyph glyph-name="Ntilde" unicode="&#xd1;" horiz-adv-x="680" 
d="M408 657c-17.333 0 -46.002 9.66895 -86.002 29.002c-30 14.667 -46.667 22 -50 22c-6 0 -10.333 -8.33301 -13 -25c0 -2 -1 -20 -3 -54l-89 55c0 38 11.667 66.667 35 86c22 17.333 45.667 26 71 26c14 0 34 -5.66699 60 -17l61 -28
c6 -2.66699 10.667 -4.33398 14 -5.00098c6 0 10.333 7.33301 13 22c0.666992 3.33301 1.66699 20 3 50l91 -44c-3.33301 -40.667 -15.166 -70.334 -35.499 -89.001s-44.166 -28 -71.499 -28zM573.998 0.00195312l-458 535v-535h-96v689h86l231 -270l228 -261v531h96v-689
h-87z" />
    <glyph glyph-name="Ograve" unicode="&#xd2;" horiz-adv-x="757" 
d="M464 667c-8.66699 -5.33301 -17.666 -7.99902 -26.999 -7.99902c-14 0 -26 5 -36 15l-115 113c-10 11.333 -15 22.333 -15 33c0 12 5.16699 21.833 15.5 29.5s22.166 11.5 35.499 11.5c14.667 0 26.667 -4.66699 36 -14l81 -75c30.667 -30.667 46 -55 46 -73
c0 -12.667 -7 -23.334 -21 -32.001zM379.001 -6.99902c-118 0 -211.166 31.5 -279.499 94.5s-102.5 149.167 -102.5 258.5c0 108.667 35 193.667 105 255c67.333 59.333 159.666 89 276.999 89s210 -29.667 278 -89c70 -61.333 105 -146.333 105 -255
s-34.5 -194.667 -103.5 -258s-162.167 -95 -279.5 -95zM379.002 602.001c-90.667 0 -160.833 -22.168 -210.5 -66.501s-74.5 -107.5 -74.5 -189.5s25 -146.5 75 -193.5s120 -70.5 210 -70.5c91.333 0 162 23.333 212 70s75 111.334 75 194.001c0 82 -25 145.167 -75 189.5
s-120.667 66.5 -212 66.5z" />
    <glyph glyph-name="Oacute" unicode="&#xd3;" horiz-adv-x="757" 
d="M355 676c-11.333 -8.66699 -22.667 -12.999 -34 -12.999c-12.667 0 -24 4.33301 -34 13s-15 19 -15 31c0 11.333 5 21.666 15 30.999l113 113c9.33301 10 21.333 15 36 15c10 0 19.333 -2.66699 28 -8c14 -9.33301 21 -20.333 21 -33c0 -18.667 -15.667 -43 -47 -73z
M378.999 -6.99902c-118 0 -211.166 31.5 -279.499 94.5s-102.5 149.167 -102.5 258.5c0 108.667 35 193.667 105 255c67.333 59.333 159.666 89 276.999 89s210 -29.667 278 -89c70 -61.333 105 -146.333 105 -255s-34.5 -194.667 -103.5 -258s-162.167 -95 -279.5 -95z
M379 602.001c-90.667 0 -160.833 -22.168 -210.5 -66.501s-74.5 -107.5 -74.5 -189.5s25 -146.5 75 -193.5s120 -70.5 210 -70.5c91.333 0 162 23.333 212 70s75 111.334 75 194.001c0 82 -25 145.167 -75 189.5s-120.667 66.5 -212 66.5z" />
    <glyph glyph-name="Ocircumflex" unicode="&#xd4;" horiz-adv-x="757" 
d="M445 670l-68 83l-68 -83h-113l151 194h58l158 -194h-118zM379 -7c-118 0 -211.166 31.5 -279.499 94.5s-102.5 149.167 -102.5 258.5c0 108.667 35 193.667 105 255c67.333 59.333 159.666 89 276.999 89s210 -29.667 278 -89c70 -61.333 105 -146.333 105 -255
s-34.5 -194.667 -103.5 -258s-162.167 -95 -279.5 -95zM379.001 602c-90.667 0 -160.833 -22.168 -210.5 -66.501s-74.5 -107.5 -74.5 -189.5s25 -146.5 75 -193.5s120 -70.5 210 -70.5c91.333 0 162 23.333 212 70s75 111.334 75 194.001c0 82 -25 145.167 -75 189.5
s-120.667 66.5 -212 66.5z" />
    <glyph glyph-name="Otilde" unicode="&#xd5;" horiz-adv-x="757" 
d="M448 678c-14 0 -34.002 5.66602 -60.002 16.999l-61 28c-6 2.66699 -10.667 4.33398 -14 5.00098c-8 0 -13.333 -12 -16 -36c0 -4.66699 -1.33301 -19 -4 -43l-85 56c0 38 11.667 66.667 35 86c22 17.333 45.667 26 71 26c16.667 0 45 -9.66699 85 -29
c30 -14 46.333 -21 49 -21c6.66699 0 11.334 7.66699 14.001 23c0.666992 2 2 19.333 4 52l91 -50c-4.66699 -40 -17.167 -69 -37.5 -87s-44.166 -27 -71.499 -27zM378.998 -7.00098c-118 0 -211.166 31.332 -279.499 93.999s-102.5 148.667 -102.5 258
c0 108.667 35 193.334 105 254.001c67.333 59.333 159.666 89 276.999 89s210.5 -30 279.5 -90s103.5 -144.333 103.5 -253c0 -108 -34.5 -193.667 -103.5 -257s-162.167 -95 -279.5 -95zM378.999 598.998c-90.667 0 -160.833 -22 -210.5 -66s-74.5 -106.667 -74.5 -188
c0 -82 25 -146.333 75 -193s120 -70 210 -70c91.333 0 162 23.167 212 69.5s75 110.833 75 193.5c0 82 -25 144.833 -75 188.5s-120.667 65.5 -212 65.5z" />
    <glyph glyph-name="Odieresis" unicode="&#xd6;" horiz-adv-x="757" 
d="M437 673c-14.667 0 -26.3359 4.49902 -35.0029 13.499s-13 19.833 -13 32.5v50c0 14.667 4.83301 25.834 14.5 33.501s20.834 11.5 33.501 11.5c28.667 0 44.334 -14.333 47.001 -43l1 -52c0 -12 -4.16699 -22.667 -12.5 -32s-20.166 -14 -35.499 -14zM320.998 672.999
c-15.333 0 -27 4.66797 -35 14.001s-12 20 -12 32v50c0 13.333 4.5 24.166 13.5 32.499s20.167 12.5 33.5 12.5c29.333 0 45.333 -14.333 48 -43l1 -52c0 -12.667 -4.5 -23.5 -13.5 -32.5s-20.833 -13.5 -35.5 -13.5zM378.998 -7c-118 0 -211.166 31.333 -279.499 94
s-102.5 148.667 -102.5 258c0 108 35 192.333 105 253c67.333 59.333 159.666 89 276.999 89s210.5 -30 279.5 -90s103.5 -144 103.5 -252c0 -108.667 -34.5 -194.5 -103.5 -257.5s-162.167 -94.5 -279.5 -94.5zM378.999 599c-90.667 0 -160.833 -22.001 -210.5 -66.001
s-74.5 -106.667 -74.5 -188c0 -82 25 -146.5 75 -193.5s120 -70.5 210 -70.5c91.333 0 162 23.333 212 70s75 111.334 75 194.001c0 81.333 -25 144 -75 188s-120.667 66 -212 66z" />
    <glyph glyph-name="multiply" unicode="&#xd7;" horiz-adv-x="490" 
d="M381 104l-136 95l-137 -94l-72 52l135 95l-134 93l74 53l134 -95l135 95l74 -53l-135 -94l137 -97z" />
    <glyph glyph-name="Oslash" unicode="&#xd8;" horiz-adv-x="757" 
d="M379 -9c-45.333 0 -87.333 4.66504 -126 13.998l-18 -34h-105l37 68c-55.333 30 -97.666 72 -126.999 126c-28.667 51.333 -43 109.333 -43 174c0 106.667 35 190.334 105 251.001c67.333 58.667 159.666 88 276.999 88c44.667 0 85.667 -4.33301 123 -13l21 39h104
l-37 -71c114.667 -59.333 172 -157.333 172 -294c0 -107.333 -34.5 -192.166 -103.5 -254.499s-162.167 -93.5 -279.5 -93.5zM547 553.998l-249.999 -467c25.333 -5.33301 52.666 -8 81.999 -8c91.333 0 162 22.833 212 68.5s75 109.5 75 191.5
c0 101.333 -39.667 173 -119 215zM379.001 589.998c-90.667 0 -160.833 -21.834 -210.5 -65.501s-74.5 -105.5 -74.5 -185.5c0 -75.333 23.667 -137 71 -185c14 -13.333 29 -24.666 45 -33.999l248 464c-24 4 -50.333 6 -79 6z" />
    <glyph glyph-name="Ugrave" unicode="&#xd9;" horiz-adv-x="664" 
d="M418 660c-8.66699 -6 -17.667 -8.99902 -27 -8.99902c-12 0 -24 4.33301 -36 13l-115 115c-9.33301 9.33301 -14 19.666 -14 30.999c0 12 5 22.5 15 31.5s21.333 13.5 34 13.5c14 0 26 -5.33301 36 -16l113 -112c9.33301 -9.33301 14 -20 14 -32
c0 -14 -6.66699 -25.667 -20 -35zM560 56.001c-50.667 -42 -126.667 -63.001 -228 -63.001c-208 0 -312 91 -312 273v426h96v-425c0 -63.333 17.167 -110 51.5 -140s89.166 -45 164.499 -45c74.667 0 129.334 14.833 164.001 44.5s52 75.167 52 136.5v429h96v-428
c0 -93.333 -28 -162.666 -84 -207.999z" />
    <glyph glyph-name="Uacute" unicode="&#xda;" horiz-adv-x="664" 
d="M310 667c-11.333 -8.66699 -23 -13 -35 -13c-13.333 0 -25 4.33301 -35 13s-15 19 -15 31c0 11.333 5 21.666 15 30.999l113 112c10.667 10.667 22.667 16 36 16s25 -4.5 35 -13.5s15 -19.5 15 -31.5c0 -11.333 -5 -21.666 -15 -30.999zM560 56
c-50.667 -42 -126.667 -63.001 -228 -63.001c-208 0 -312 91 -312 273v427h96v-426c0 -63.333 17.167 -110 51.5 -140s89.166 -45 164.499 -45c74.667 0 129.334 14.833 164.001 44.5s52 75.167 52 136.5v430h96v-429c0 -93.333 -28 -162.666 -84 -207.999z" />
    <glyph glyph-name="Ucircumflex" unicode="&#xdb;" horiz-adv-x="664" 
d="M399 660l-69 84l-68 -84h-114l153 195h59l157 -195h-118zM560 56c-50.667 -42 -126.667 -63.001 -228 -63.001c-208 0 -312 91 -312 273v427h96v-426c0 -63.333 17.167 -110 51.5 -140s89.166 -45 164.499 -45c74.667 0 129.334 14.833 164.001 44.5s52 75.167 52 136.5
v430h96v-429c0 -93.333 -28 -162.666 -84 -207.999z" />
    <glyph glyph-name="Udieresis" unicode="&#xdc;" horiz-adv-x="664" 
d="M390 673c-14.667 0 -26.334 4.49805 -35.001 13.498s-13 19.833 -13 32.5v50c0 14.667 4.83301 25.834 14.5 33.501s20.834 11.5 33.501 11.5c13.333 0 24.666 -4.16699 33.999 -12.5s14 -19.166 14 -32.499v-50c0 -12 -4.16699 -22.667 -12.5 -32
s-20.166 -14 -35.499 -14zM274 672.998c-15.333 0 -27 4.66895 -35 14.002s-12 20 -12 32v50c0 13.333 4.5 24.166 13.5 32.499s20.167 12.5 33.5 12.5c12.667 0 24 -3.83301 34 -11.5s15 -18.834 15 -33.501v-50c0 -12.667 -4.5 -23.5 -13.5 -32.5
s-20.833 -13.5 -35.5 -13.5zM560 55c-50.667 -41.333 -126.667 -62.001 -228 -62.001c-208 0 -312 90.667 -312 272v425h96v-424c0 -62.667 17.167 -109.167 51.5 -139.5s89.166 -45.5 164.499 -45.5c74.667 0 129.334 14.833 164.001 44.5s52 75.167 52 136.5v428h96v-427
c0 -93.333 -28 -162.666 -84 -207.999z" />
    <glyph glyph-name="Yacute" unicode="&#xdd;" horiz-adv-x="657" 
d="M308 672c-10 -10 -21.667 -15 -35 -15s-25 4.5 -35 13.5s-15 19.5 -15 31.5c0 11.333 4.66699 21.666 14 30.999l114 112c10.667 10.667 22.667 16 36 16s24.833 -4.5 34.5 -13.5s14.5 -19.5 14.5 -31.5c0 -11.333 -4.66699 -21.666 -14 -30.999zM378 327v-327h-96v327
l-351 366h128l270 -281l272 281h126z" />
    <glyph glyph-name="Thorn" unicode="&#xde;" horiz-adv-x="425" 
d="M235 157l-118 -0.000976562v-157h-96v678h96v-138h119c114.667 0 172 -64.667 172 -194c0 -59.333 -14.5 -105.666 -43.5 -138.999s-72.167 -50 -129.5 -50zM235 452.999h-118v-210h119c50 0.666992 75 35 75 103c0 71.333 -25.333 107 -76 107z" />
    <glyph glyph-name="germandbls" unicode="&#xdf;" horiz-adv-x="505" 
d="M422 25c-52 -36.667 -134.332 -55.002 -246.999 -55.002v88c89.333 0 153 13 191 39c34.667 24 52 62.333 52 115c0 48.667 -19.333 86.334 -58 113.001s-100.334 40 -185.001 40v88c82.667 0 135.667 4.33301 159 13c29.333 10 44 29.667 44 59
c0 31.333 -10.667 52 -32 62s-58.333 15 -111 15c-42 0 -72.167 -8.16699 -90.5 -24.5s-27.5 -42.5 -27.5 -78.5v-502h-96v368h-36v89h36c0.666992 22 1.66699 45.333 3 70c5.33301 110.667 76.333 166 213 166c161.333 0 240 -54 236 -162
c-1.33301 -57.333 -24.333 -98.666 -69 -123.999c73.333 -49.333 110 -113.333 110 -192c0 -82 -30.667 -144.333 -92 -187z" />
    <glyph glyph-name="agrave" unicode="&#xe0;" horiz-adv-x="552" 
d="M275 486l-82.002 75.001c-30.667 29.333 -46 53 -46 71c0 12 6.66699 22.333 20 31c8.66699 6 18.334 9 29.001 9c14 0 26 -4.66699 36 -14c22.667 -20 55.667 -51 99 -93c18.667 -20 28 -37.333 28 -52c0 -12.667 -7 -23.334 -21 -32.001c-8 -4.66699 -16.667 -7 -26 -7
c-13.333 0 -25.666 4 -36.999 12zM440.998 -0.999023v47.999c-46.667 -38.667 -107 -58 -181 -58c-84 0 -150.667 26 -200 78c-46 48 -69 109.667 -69 185c0 76.667 23.333 139.334 70 188.001c49.333 52 117 78 203 78c70.667 0 129.667 -19 177 -57v55h96v-517h-96z
M258.998 430c-54 0 -96.167 -16.833 -126.5 -50.5s-45.5 -76.167 -45.5 -127.5c0 -52.667 14.333 -94.667 43 -126c30.667 -33.333 73.667 -50 129 -50s99.5 16.667 132.5 50s49.5 75.333 49.5 126c0 55.333 -15.5 98.833 -46.5 130.5s-76.167 47.5 -135.5 47.5z" />
    <glyph glyph-name="aacute" unicode="&#xe1;" horiz-adv-x="552" 
d="M241 486c-11.333 -8.66699 -22.668 -13 -34.001 -13c-12.667 0 -24 4.33301 -34 13s-15 19 -15 31c0 10.667 5 20.667 15 30l113 111c10.667 10.667 23 16 37 16c12.667 0 23.834 -4.33301 33.501 -13s14.5 -19 14.5 -31c0 -11.333 -4.33301 -22 -13 -32zM452.998 -1
v47.999c-46.667 -38.667 -107 -58 -181 -58c-84 0 -150.667 26 -200 78c-45.333 48 -68 109.667 -68 185c0 76.667 23 139.334 69 188.001c49.333 52 117 78 203 78c70.667 0 129.667 -19 177 -57v55h96v-517h-96zM270.998 429.999c-54 0 -96.667 -17.333 -128 -52
c-29.333 -32 -44 -74 -44 -126c0 -52.667 14.333 -94.667 43 -126c30.667 -33.333 73.667 -50 129 -50s99.5 16.667 132.5 50s49.5 75.333 49.5 126c0 55.333 -15.5 98.833 -46.5 130.5s-76.167 47.5 -135.5 47.5z" />
    <glyph glyph-name="acircumflex" unicode="&#xe2;" horiz-adv-x="552" 
d="M331 483l-68 82l-68 -82h-114l152 191h58l159 -191h-119zM453 -1v47.999c-46.667 -38.667 -107 -58 -181 -58c-84 0 -150.667 26 -200 78c-45.333 48 -68 109.667 -68 185c0 76.667 23 139.334 69 188.001c49.333 52 117 78 203 78c70.667 0 129.667 -18.667 177 -56v54
h96v-517h-96zM271 429.999c-54 0 -96.667 -17.333 -128 -52c-29.333 -32 -44 -74 -44 -126s14.833 -94.333 44.5 -127s72.167 -49 127.5 -49s99.5 16.667 132.5 50s49.5 75.333 49.5 126c0 55.333 -15.5 98.833 -46.5 130.5s-76.167 47.5 -135.5 47.5z" />
    <glyph glyph-name="atilde" unicode="&#xe3;" horiz-adv-x="552" 
d="M333 491c-17.333 0 -46 9.33301 -86 28c-30 14 -46.333 21 -49 21c-8 0 -13.333 -11.667 -16 -35c0 -4.66699 -1.33301 -18.667 -4 -42l-85 54c0 38 12 66.333 36 85c21.333 16.667 44.666 25 69.999 25c16.667 0 45 -9.33301 85 -28c30 -14 46.333 -21 49 -21
c8 0 13.333 11 16 33l2 40l91 -48c-4.66699 -39.333 -17.167 -67.833 -37.5 -85.5s-44.166 -26.5 -71.499 -26.5zM453 -1v48c-46.667 -38.667 -107 -58 -181 -58c-84 0 -150.667 25.667 -200 77c-45.333 48 -68 109.667 -68 185c0 76 23 138.333 69 187
c49.333 51.333 117 77 203 77c70.667 0 129.667 -18.667 177 -56v54h96v-514h-96zM271 428c-54.667 0 -97.332 -17.334 -127.999 -52.001c-29.333 -32 -44 -73.667 -44 -125c0 -52 14.333 -93.667 43 -125c30.667 -33.333 73.667 -50 129 -50s99.666 17 132.999 51
c32.667 32 49 73.333 49 124c0 54.667 -15.5 97.834 -46.5 129.501s-76.167 47.5 -135.5 47.5z" />
    <glyph glyph-name="adieresis" unicode="&#xe4;" horiz-adv-x="552" 
d="M335 485c-14.667 0 -26.333 4.5 -35 13.5s-13 19.833 -13 32.5v49c0 14 5.33301 25 16 33c8.66699 7.33301 19.334 11 32.001 11c13.333 0 24.666 -4 33.999 -12s14 -18.667 14 -32v-49c0 -11.333 -4 -21.333 -12 -30c-8.66699 -10.667 -20.667 -16 -36 -16zM219.001 485
c-15.333 0 -27.334 5.33301 -36.001 16c-7.33301 8.66699 -11 18.667 -11 30v49c0 13.333 4.5 24 13.5 32s20.167 12 33.5 12c12.667 0 23.334 -3.66699 32.001 -11c11.333 -8 17 -19 17 -33v-49c0 -12.667 -4.5 -23.5 -13.5 -32.5s-20.833 -13.5 -35.5 -13.5zM453 -1v48
c-46.667 -38.667 -107 -58 -181 -58c-84 0 -150.667 25.667 -200 77c-45.333 48 -68 109.333 -68 184c0 76 23 138.333 69 187c49.333 51.333 117 77 203 77c70.667 0 129.667 -18.667 177 -56v54h96v-513h-96zM271 427c-54.667 0 -97.333 -17.334 -128 -52.001
c-29.333 -32 -44 -73.667 -44 -125c0 -52 14.333 -93.333 43 -124c30.667 -33.333 73.667 -50 129 -50s99.5 16.5 132.5 49.5s49.5 74.5 49.5 124.5c0 54.667 -15.5 97.834 -46.5 129.501s-76.167 47.5 -135.5 47.5z" />
    <glyph glyph-name="aring" unicode="&#xe5;" horiz-adv-x="552" 
d="M270 498c-30.667 0 -57.667 9.16699 -81 27.5s-35 42.833 -35 73.5s11.667 55.167 35 73.5s50.333 27.5 81 27.5s57.5 -9.33301 80.5 -28s34.5 -43 34.5 -73s-11.5 -54.333 -34.5 -73s-49.833 -28 -80.5 -28zM453 -1v48c-46.667 -38.667 -107 -58 -181 -58
c-84 0 -150.667 26 -200 78c-45.333 48.667 -68 110.667 -68 186c0 77.333 23 140.333 69 189c49.333 52 117 78 203 78c70.667 0 129.667 -19 177 -57v55h96v-519h-96zM270 611c-12 0 -18 -3.99902 -18 -11.999s6 -12 18 -12s18 4 18 12
c0 3.33301 -1.5 6.16602 -4.5 8.49902s-7.5 3.5 -13.5 3.5zM271 432.001c-54 0 -96.167 -16.833 -126.5 -50.5s-45.5 -76.5 -45.5 -128.5c0 -52.667 14.333 -94.667 43 -126c30.667 -33.333 73.667 -50 129 -50s99.5 16.667 132.5 50s49.5 75.333 49.5 126
c0 55.333 -15.5 99 -46.5 131s-76.167 48 -135.5 48z" />
    <glyph glyph-name="ae" unicode="&#xe6;" horiz-adv-x="984" 
d="M503 206l33.999 31.998v-19c0 -96.667 59 -145 177 -145c86.667 0 145 36.333 175 109h100c-28.667 -80 -69 -133 -121 -159c-45.333 -23.333 -97.333 -35 -156 -35c-72 0 -130.333 15.667 -175 47v-37h-96v46c-46.667 -37.333 -107 -56 -181 -56
c-84 0 -150.667 25 -200 75c-46 46.667 -69 106.334 -69 179.001c0 74.667 23.333 135.334 70 182.001c50 50 117.667 75 203 75c70.667 0 129.667 -18 177 -54v52h96v-56c49.333 38.667 109 58 179 58c82.667 0 149.334 -21.667 200.001 -65s76 -101.333 76 -174v-54z
M843.999 371.998c-30.667 28.667 -73.333 42.999 -128 42.999c-46.667 0 -87 -12 -121 -36s-53.333 -55 -58 -93c50 2.66699 167 4.33398 351 5.00098c-6 32 -20.667 59 -44 81zM259 414.997c-54.667 0 -97.667 -16.667 -129 -50c-28.667 -31.333 -43 -72 -43 -122
s14.333 -90 43 -120c30.667 -32.667 73.667 -49 129 -49s99.5 16 132.5 48s49.5 72.333 49.5 121c0 53.333 -15.5 95.333 -46.5 126s-76.167 46 -135.5 46z" />
    <glyph glyph-name="ccedilla" unicode="&#xe7;" 
d="M430 10c-44 -25.333 -95.999 -38.001 -155.999 -38.001c-84.667 0 -152.334 23.333 -203.001 70s-76 108.334 -76 185.001c0 81.333 25.833 147.166 77.5 197.499s122.5 75.5 212.5 75.5c55.333 0 103.333 -12 144 -36c46 -26.667 78.667 -73.667 98 -141l-88 -42
c-13.333 50 -32.333 85 -57 105c-22.667 18 -55.667 27 -99 27c-61.333 0 -108.5 -16.833 -141.5 -50.5s-49.5 -78.834 -49.5 -135.501c0 -51.333 15.667 -92.166 47 -122.499s76 -45.5 134 -45.5c40.667 0 75.667 8.83301 105 26.5s50.333 56.167 63 115.5l92 -37
c-18.667 -73.333 -53 -124.666 -103 -153.999zM319.001 -77.001l-0.000976562 -1.00195c-3.33301 0.666992 -11.666 1.66699 -24.999 3c-14 0.666992 -38.333 -6.66602 -73 -21.999v62l12 95h93l-2 -49c64 -7.33301 96 -37.666 96 -90.999c0 -62.667 -47 -94 -141 -94
c-27.333 0 -75.666 9 -144.999 27l45 81c47.333 -14 79.666 -21 96.999 -21c28.667 0 43 3.33301 43 10z" />
    <glyph glyph-name="egrave" unicode="&#xe8;" 
d="M347 480c-8 -4 -16.332 -6 -24.999 -6c-13.333 0 -25.333 4 -36 12l-117 112c-9.33301 10.667 -14 21.334 -14 32.001c0 11.333 5.16699 21 15.5 29s22.166 12 35.499 12c14 0 25.667 -4.33301 35 -13l82 -74c30.667 -30 46 -54 46 -72
c0 -12.667 -7.33301 -23.334 -22 -32.001zM86.001 214c11.333 -92 69.999 -138 175.999 -138c86.667 0 145 37.667 175 113h99c-28 -83.333 -67.667 -138.333 -119 -165c-44.667 -23.333 -97 -35 -157 -35c-88.667 0 -157 24.667 -205 74c-44.667 46 -67 109 -67 189
c0 76 25 139.333 75 190s117.333 76 202 76c82.667 0 149.334 -22.5 200.001 -67.5s76 -105.167 76 -180.5v-55zM393 386c-30.667 29.333 -73.333 44 -128 44s-97.667 -14.667 -129 -44c-24 -22.667 -39.667 -51 -47 -85h348c-6 34 -20.667 62.333 -44 85z" />
    <glyph glyph-name="eacute" unicode="&#xe9;" 
d="M358 601l-119.002 -112.999c-11.333 -8.66699 -22.666 -13 -33.999 -13c-12.667 0 -24 4.33301 -34 13s-15 18.667 -15 30s5 21.666 15 30.999l113 110c10 10 21.667 15 35 15c10.667 0 21.334 -3 32.001 -9c12 -10.667 18 -22 18 -34
c0 -8.66699 -3.66699 -18.667 -11 -30zM85.998 214.001c11.333 -92 69.999 -138 175.999 -138c86.667 0 145 37.667 175 113h99c-28 -83.333 -67.667 -138.333 -119 -165c-44.667 -23.333 -97 -35 -157 -35c-88.667 0 -157 24.667 -205 74c-44.667 46 -67 109 -67 189
c0 76 25 139.333 75 190s117.333 76 202 76c82.667 0 149.334 -22.5 200.001 -67.5s76 -105.167 76 -180.5v-55zM392.997 386.001c-30.667 29.333 -73.333 44 -128 44s-97.667 -14.667 -129 -44c-24 -22.667 -39.667 -51 -47 -85h348c-6 34 -20.667 62.333 -44 85z" />
    <glyph glyph-name="ecircumflex" unicode="&#xea;" 
d="M329 483l-68 82l-68 -82h-114l153 191h58l157 -191h-118zM86 214c11.333 -92 69.999 -138 175.999 -138c86.667 0 145 37.667 175 113h99c-28 -83.333 -67.667 -138.333 -119 -165c-44.667 -23.333 -97 -35 -157 -35c-88.667 0 -157 24.667 -205 74
c-44.667 46 -67 109 -67 189c0 76 25 139.333 75 190s117.333 76 202 76c82.667 0 149.334 -22.5 200.001 -67.5s76 -105.167 76 -180.5v-55zM392.999 386c-30.667 29.333 -73.333 44 -128 44s-97.667 -14.667 -129 -44c-24 -22.667 -39.667 -50.667 -47 -84h348
c-6 33.333 -20.667 61.333 -44 84z" />
    <glyph glyph-name="edieresis" unicode="&#xeb;" 
d="M321 485c-15.333 0 -27.334 5.33301 -36.001 16c-7.33301 8.66699 -11 18.667 -11 30v49c0 13.333 4.5 24 13.5 32s20.167 12 33.5 12c12.667 0 23.334 -3.66699 32.001 -11c11.333 -8 17 -19 17 -33v-49c0 -12.667 -4.5 -23.5 -13.5 -32.5s-20.833 -13.5 -35.5 -13.5z
M205.999 485c-14.667 0 -26.333 4.5 -35 13.5s-13 19.833 -13 32.5v49c0 14 5.33301 25 16 33c8.66699 7.33301 19.334 11 32.001 11c13.333 0 24.666 -4 33.999 -12s14 -18.667 14 -32v-49c0 -11.333 -4 -21.333 -12 -30c-8.66699 -10.667 -20.667 -16 -36 -16zM86 212
c11.333 -90.667 69.999 -135.997 175.999 -135.997c86.667 0 145 37.333 175 112h99c-28 -82.667 -67.667 -137.334 -119 -164.001c-44.667 -23.333 -97 -35 -157 -35c-88.667 0 -157 24.333 -205 73c-44.667 46 -67 108.667 -67 188c0 75.333 25 138.166 75 188.499
s117.333 75.5 202 75.5c82.667 0 149.334 -22.333 200.001 -67s76 -104.334 76 -179.001v-55zM392.999 383.003c-30.667 29.333 -73.333 44 -128 44s-97.667 -15 -129 -45c-24 -22 -39.667 -49.667 -47 -83h348c-6 33.333 -20.667 61.333 -44 84z" />
    <glyph glyph-name="igrave" unicode="&#xec;" horiz-adv-x="136" 
d="M152 481c-8 -4.66699 -16.335 -6.99805 -25.002 -6.99805c-13.333 0 -25.666 4.33301 -36.999 13l-114 110c-9.33301 9.33301 -14 19.666 -14 30.999c0 12 4.83301 22.5 14.5 31.5s21.167 13.5 34.5 13.5c12.667 0 24.334 -5 35.001 -15l82 -74
c30.667 -30 46 -53.667 46 -71c0 -12.667 -7.33301 -23.334 -22 -32.001zM20.998 0.00195312v507h96v-507h-96z" />
    <glyph glyph-name="iacute" unicode="&#xed;" horiz-adv-x="136" 
d="M47 484c-10 -10 -21.668 -15.001 -35.001 -15.001s-25 4.5 -35 13.5s-15 19.5 -15 31.5c0 10.667 4.66699 20.667 14 30l114 110c10.667 10 22.667 15 36 15c12.667 0 23.834 -4.5 33.501 -13.5s14.5 -19.167 14.5 -30.5s-4.66699 -21.666 -14 -30.999z
M20.999 -0.000976562v507h96v-507h-96z" />
    <glyph glyph-name="icircumflex" unicode="&#xee;" horiz-adv-x="136" 
d="M130 484l-61 79l-63 -79h-113l146 190h59l149 -190h-117zM21 0v507h96v-507h-96z" />
    <glyph glyph-name="idieresis" unicode="&#xef;" horiz-adv-x="136" 
d="M129 486c-15.333 0 -27.001 4.66895 -35.001 14.002s-12 19.666 -12 30.999v49c0 13.333 4.5 24 13.5 32s20.167 12 33.5 12c12.667 0 23.334 -3.66699 32.001 -11c11.333 -8 17 -19 17 -33v-49c0 -12.667 -4.5 -23.334 -13.5 -32.001s-20.833 -13 -35.5 -13z
M13.999 486.002c-14.667 0 -26.501 4.33105 -35.501 12.998s-13.5 19.334 -13.5 32.001v49c0 14 5.66699 25 17 33c8.66699 7.33301 19.334 11 32.001 11c13.333 0 24.666 -4 33.999 -12s14 -18.667 14 -32v-49c0 -11.333 -4.16699 -21.666 -12.5 -30.999
s-20.166 -14 -35.499 -14zM20.998 0v503h96v-503h-96z" />
    <glyph glyph-name="eth" unicode="&#xf0;" horiz-adv-x="564" 
d="M441 -1v48c-46.667 -38.667 -107 -58 -181 -58c-84 0 -150.667 26 -200 78c-46 48 -69 109.667 -69 185c0 77.333 23.333 140 70 188c49.333 52 117 78 203 78c70.667 0 129.667 -18.667 177 -56v63h-332v88h332v65h96v-679h-96zM259 431
c-54 0 -96.167 -16.833 -126.5 -50.5s-45.5 -76.5 -45.5 -128.5s14.333 -93.667 43 -125c30.667 -34 73.667 -51 129 -51s99.5 16.667 132.5 50s49.5 75.333 49.5 126c0 55.333 -15.5 99 -46.5 131s-76.167 48 -135.5 48z" />
    <glyph glyph-name="ntilde" unicode="&#xf1;" 
d="M334 491c-17.333 0 -46.002 9.33105 -86.002 27.998c-30 14 -46.667 21 -50 21c-6 0 -10.333 -8 -13 -24c0 -1.33301 -1 -18.666 -3 -51.999l-89 53c0 37.333 12 65.333 36 84c22 17.333 45.333 26 70 26c16.667 0 45 -9.33301 85 -28c30 -14 46.667 -21 50 -21
c6 0 10.333 7.66699 13 23c0.666992 2.66699 2 19.334 4 50.001l90 -47c-3.33301 -39.333 -15.166 -68 -35.499 -86s-44.166 -27 -71.499 -27zM406.998 -0.00195312v322.001c0 70.667 -44 106 -132 106c-50 0 -88.833 -13.5 -116.5 -40.5s-41.5 -62.833 -41.5 -107.5v-280
h-96v504h96v-33c42 29.333 94.333 44 157 44c64 0 116.667 -14.667 158 -44c47.333 -32.667 71 -79.334 71 -140.001v-331h-96z" />
    <glyph glyph-name="ograve" unicode="&#xf2;" horiz-adv-x="545" 
d="M295 486l-82.002 75.001c-30.667 29.333 -46 53 -46 71c0 12 6.66699 22.333 20 31c8.66699 6 18.334 9 29.001 9c14 0 26 -4.66699 36 -14c22.667 -20 55.667 -51 99 -93c18.667 -20 28 -37.333 28 -52c0 -12.667 -7 -23.334 -21 -32.001c-8 -4.66699 -16.667 -7 -26 -7
c-13.333 0 -25.666 4 -36.999 12zM271.998 -10.999c-86 0 -154.667 25 -206 75c-50 48 -75 111 -75 189c0 77.333 25.667 140.833 77 190.5s120 74.5 206 74.5s154.333 -24.833 205 -74.5s76 -113.167 76 -190.5c0 -78 -25.667 -141.5 -77 -190.5s-120 -73.5 -206 -73.5z
M272.998 430.001c-58.667 0 -104.168 -16.168 -136.501 -48.501s-48.5 -75.166 -48.5 -128.499c0 -52.667 16.333 -95.334 49 -128.001s78 -49 136 -49s103.5 16.333 136.5 49s49.5 75.334 49.5 128.001c0 54 -16.167 97 -48.5 129s-78.166 48 -137.499 48z" />
    <glyph glyph-name="oacute" unicode="&#xf3;" horiz-adv-x="545" 
d="M251 484c-10 -10 -21.667 -15.002 -35 -15.002s-25 4.5 -35 13.5s-15 19.5 -15 31.5c0 10.667 4.66699 20.334 14 29.001l114 111c10.667 10 22.667 15 36 15s24.833 -4.5 34.5 -13.5s14.5 -19.167 14.5 -30.5s-4.66699 -21.666 -14 -30.999zM272 -11.002
c-86 0 -154.667 25 -206 75c-50 48 -75 111 -75 189c0 77.333 25.667 140.666 77 189.999s120 74 206 74s154.333 -24.667 205 -74s76 -112.666 76 -189.999c0 -78 -25.667 -141.5 -77 -190.5s-120 -73.5 -206 -73.5zM273 429.998
c-58.667 0 -104.168 -16.168 -136.501 -48.501s-48.5 -75.166 -48.5 -128.499c0 -52.667 16.333 -95.334 49 -128.001s78 -49 136 -49s103.5 16.333 136.5 49s49.5 75.334 49.5 128.001c0 54 -16.167 97 -48.5 129s-78.166 48 -137.499 48z" />
    <glyph glyph-name="ocircumflex" unicode="&#xf4;" horiz-adv-x="545" 
d="M340 483l-68 82l-69 -82h-114l153 191h58l159 -191h-119zM272 -11c-86 0 -154.333 24.668 -205 74.001s-76 112.666 -76 189.999c0 78 25.667 141.667 77 191s120 74 206 74s154.333 -24.833 205 -74.5s76 -113.167 76 -190.5c0 -78 -25.667 -141.5 -77 -190.5
s-120 -73.5 -206 -73.5zM273 430.001c-58.667 0 -104.168 -16.168 -136.501 -48.501s-48.5 -75.166 -48.5 -128.499c0 -52.667 16.333 -95.334 49 -128.001s78 -49 136 -49s103.5 16.333 136.5 49s49.5 75.334 49.5 128.001c0 54 -16.167 97 -48.5 129
s-78.166 48 -137.499 48z" />
    <glyph glyph-name="otilde" unicode="&#xf5;" horiz-adv-x="545" 
d="M341 491c-17.333 0 -46.3311 9.33301 -86.998 28c-26.667 12.667 -42.667 19.667 -48 21c-8.66699 0 -13.667 -11.333 -15 -34c0 -4.66699 -0.666992 -19 -2 -43l-89 54c0 38.667 11.333 66.667 34 84s47 26 73 26c13.333 0 33.333 -5.66699 60 -17l60 -27
c6 -2 10.667 -3.66699 14 -5c5.33301 0 9.16602 3.83301 11.499 11.5s6.16602 27.834 11.499 60.501l85 -48c-4.66699 -38.667 -17 -66.834 -37 -84.501s-43.667 -26.5 -71 -26.5zM272.002 -11c-86 0 -154.333 24.5 -205 73.5s-76 111.833 -76 188.5
c0 77.333 25.667 140.666 77 189.999s120 74 206 74s154.333 -24.667 205 -74s76 -112.666 76 -189.999s-25.667 -140.333 -77 -189s-120 -73 -206 -73zM273.002 428c-58.667 0 -104.168 -16.168 -136.501 -48.501s-48.5 -75.166 -48.5 -128.499
c0 -52 16.333 -94.167 49 -126.5s78 -48.5 136 -48.5s103.5 16.167 136.5 48.5s49.5 74.5 49.5 126.5c0 54 -16.167 97 -48.5 129s-78.166 48 -137.499 48z" />
    <glyph glyph-name="odieresis" unicode="&#xf6;" horiz-adv-x="545" 
d="M331 485c-14.667 0 -26.333 4.5 -35 13.5s-13 19.833 -13 32.5v49c0 14 5.33301 25 16 33c8.66699 7.33301 19.334 11 32.001 11c13.333 0 24.666 -4 33.999 -12s14 -18.667 14 -32v-49c0 -11.333 -4 -21.333 -12 -30c-8.66699 -10.667 -20.667 -16 -36 -16zM215.001 485
c-15.333 0 -27.334 5.33301 -36.001 16c-7.33301 8.66699 -11 18.667 -11 30v49c0 13.333 4.5 24 13.5 32s20.167 12 33.5 12c12.667 0 23.334 -3.66699 32.001 -11c11.333 -8 17 -19 17 -33v-49c0 -12.667 -4.5 -23.5 -13.5 -32.5s-20.833 -13.5 -35.5 -13.5zM272 -11
c-86 0 -154.333 24.333 -205 73s-76 111.667 -76 189s25.667 140.5 77 189.5s120 73.5 206 73.5s154.333 -24.667 205 -74s76 -112.333 76 -189c0 -77.333 -25.667 -140.333 -77 -189s-120 -73 -206 -73zM273 427c-58.667 0 -104.168 -16.167 -136.501 -48.5
s-48.5 -74.833 -48.5 -127.5s16.333 -95 49 -127s78 -48 136 -48s103.5 16 136.5 48s49.5 74.333 49.5 127c0 53.333 -16.167 96 -48.5 128s-78.166 48 -137.499 48z" />
    <glyph glyph-name="divide" unicode="&#xf7;" horiz-adv-x="592" 
d="M296 264c-14 0 -25.333 4 -34 12s-13 17.667 -13 29v52c0 12.667 4.66699 22.667 14 30s20.333 11 33 11c32.667 0 49 -13.667 49 -41v-52c0 -12.667 -4.83301 -22.667 -14.5 -30s-21.167 -11 -34.5 -11zM13 199v81h552v-81h-552zM296 74
c-14 0 -25.333 3.99805 -34 11.998s-13 18 -13 30v51c0 12 4.33301 22 13 30s20 12 34 12c13.333 0 24.833 -3.66699 34.5 -11s14.5 -17.666 14.5 -30.999v-51c0 -13.333 -4.83301 -23.666 -14.5 -30.999s-21.167 -11 -34.5 -11z" />
    <glyph glyph-name="oslash" unicode="&#xf8;" horiz-adv-x="545" 
d="M272 -15c-31.333 0 -60.334 3.33203 -87.001 9.99902l-23 -42h-105l43 79c-72.667 47.333 -109 118.333 -109 213c0 76.667 25.667 139.334 77 188.001s120 73 206 73c28.667 0 55.334 -2.66699 80.001 -8l28 51h104l-46 -87c76.667 -48 115 -120.333 115 -217
c0 -76.667 -25.667 -139.167 -77 -187.5s-120 -72.5 -206 -72.5zM394.999 381.999l-167 -307c14 -2.66699 29 -4 45 -4c58 0 103.5 16 136.5 48s49.5 74 49.5 126c0 57.333 -21.333 103 -64 137zM272.999 418.999c-58.667 0 -104.167 -15.8311 -136.5 -47.498
s-48.5 -73.834 -48.5 -126.501c0 -54.667 18.667 -98.334 56 -131.001l165 303c-11.333 1.33301 -23.333 2 -36 2z" />
    <glyph glyph-name="ugrave" unicode="&#xf9;" 
d="M347 477c-8 -4.66699 -16.335 -6.99902 -25.002 -6.99902c-13.333 0 -25.666 4.33301 -36.999 13l-114 111c-9.33301 9.33301 -14 19.666 -14 30.999c0 12.667 6 23.667 18 33c8.66699 7.33301 18.334 11 29.001 11c14 0 26.333 -5 37 -15l82 -74
c30.667 -30 46 -53.667 46 -71c0 -13.333 -7.33301 -24 -22 -32zM406.998 -0.999023v35c-42.667 -30 -95 -45 -157 -45c-68 0 -122.333 16 -163 48c-44 34.667 -66 83.667 -66 147v323h96v-322c0 -72.667 44.333 -109 133 -109c104.667 0 157 52.667 157 158v273h96v-508
h-96z" />
    <glyph glyph-name="uacute" unicode="&#xfa;" 
d="M242 488c-10 -10 -21.667 -15.001 -35 -15.001s-25 4.33301 -35 13s-15 19 -15 31c0 11.333 4.66699 21.333 14 30l113 111c10.667 10 22.667 15 36 15s25 -4.5 35 -13.5s15 -19.5 15 -31.5c0 -11.333 -5 -21.666 -15 -30.999zM407 -1.00098v35
c-42.667 -30 -95 -45 -157 -45c-68 0 -122.333 16 -163 48c-44 34.667 -66 83.667 -66 147v323h96v-322c0 -72.667 44.333 -109 133 -109c104.667 0 157 52.667 157 158v273h96v-508h-96z" />
    <glyph glyph-name="ucircumflex" unicode="&#xfb;" 
d="M329 483l-68 82l-68 -82h-114l153 191h58l157 -191h-118zM407 -1v35c-42.667 -30 -95 -45 -157 -45c-68 0 -122.333 16 -163 48c-44 34.667 -66 83.667 -66 147v323h96v-322c0 -72.667 44.333 -109 133 -109c104.667 0 157 52.667 157 158v273h96v-508h-96z" />
    <glyph glyph-name="udieresis" unicode="&#xfc;" 
d="M320 485c-15.333 0 -27.334 5.33301 -36.001 16c-7.33301 8.66699 -11 18.667 -11 30v49c0 13.333 4.5 24 13.5 32s20.167 12 33.5 12c12.667 0 23.334 -3.66699 32.001 -11c11.333 -8 17 -19 17 -33v-49c0 -12.667 -4.5 -23.5 -13.5 -32.5s-20.833 -13.5 -35.5 -13.5z
M204.999 485c-14.667 0 -26.333 4.5 -35 13.5s-13 19.833 -13 32.5v49c0 14 5.33301 25 16 33c8.66699 7.33301 19.334 11 32.001 11c13.333 0 24.666 -4 33.999 -12s14 -18.667 14 -32v-49c0 -11.333 -4 -21.333 -12 -30c-8.66699 -10.667 -20.667 -16 -36 -16zM407 -1v34
c-42.667 -29.333 -95 -44 -157 -44c-68 0 -122.333 16 -163 48c-44 34 -66 82.333 -66 145v321h96v-320c0 -71.333 44.333 -107 133 -107c104.667 0 157 52 157 156v271h96v-504h-96z" />
    <glyph glyph-name="yacute" unicode="&#xfd;" horiz-adv-x="506" 
d="M349 601l-119.002 -116.999c-11.333 -8 -22.666 -12 -33.999 -12c-10 0 -20.333 3.66699 -31 11c-13.333 9.33301 -20 20 -20 32c0 10.667 5.66699 21.334 17 32.001l113 112c10 10 21.667 15 35 15c10.667 0 21.334 -3 32.001 -9c12 -10.667 18 -22.334 18 -35.001
c0 -8.66699 -3.66699 -18.334 -11 -29.001zM240.998 -178.999c-63.333 0 -116 12.001 -158 36.001c-52.667 31.333 -81.334 90 -86.001 176h94c4.66699 -46.667 18.667 -78.834 42 -96.501s60 -26.5 110 -26.5c102.667 0 157 36.667 163 110
c-42.667 -30 -94.667 -45 -156 -45c-67.333 0 -121.666 16.333 -162.999 49c-44 34.667 -66 84.667 -66 150v329h96v-328c0 -74 44.333 -111 133 -111c104.667 0 157 53.667 157 161v278h96v-467c0 -71.333 -22.833 -125 -68.5 -161s-110.167 -54 -193.5 -54z" />
    <glyph glyph-name="thorn" unicode="&#xfe;" horiz-adv-x="564" 
d="M496 55c-48.667 -52.667 -116.333 -78.999 -203 -78.999c-70 0 -128.667 19 -176 57v-201h-96v846h96v-221c47.333 38.667 105.666 58 174.999 58c86.667 0 154.334 -25.667 203.001 -77c46 -48.667 69 -112.334 69 -191.001c0 -79.333 -22.667 -143.333 -68 -192z
M298.001 426.001c-56 0 -100.166 -16.3311 -132.499 -48.998s-48.5 -75.334 -48.5 -128.001c0 -123.333 60 -185 180 -185c55.333 0 98.333 17.333 129 52c28.667 32.667 43 76 43 130c0 53.333 -14.833 96.666 -44.5 129.999s-71.834 50 -126.501 50z" />
    <glyph glyph-name="ydieresis" unicode="&#xff;" horiz-adv-x="510" 
d="M313 483c-15.333 0 -27 4.66797 -35 14.001s-12 20 -12 32v50c0 13.333 4.5 24.166 13.5 32.499s20.167 12.5 33.5 12.5c29.333 0 45.333 -14.333 48 -43l1 -52c0 -12.667 -4.5 -23.5 -13.5 -32.5s-20.833 -13.5 -35.5 -13.5zM198 483.001
c-14.667 0 -26.3359 4.49902 -35.0029 13.499s-13 19.833 -13 32.5v50c0 14.667 4.83301 25.834 14.5 33.501s20.834 11.5 33.501 11.5c28.667 0 44.334 -14.333 47.001 -43l1 -52c0 -12 -4.16699 -22.667 -12.5 -32s-20.166 -14 -35.499 -14zM240.998 -179
c-63.333 0 -115.999 12.002 -157.999 36.002c-52.667 31.333 -81.334 89.666 -86.001 174.999h94c4.66699 -46.667 18.667 -78.834 42 -96.501s60 -26.5 110 -26.5c102.667 0 157 36.667 163 110c-42.667 -30 -94.667 -45 -156 -45c-67.333 0 -121.333 16 -162 48
c-44.667 35.333 -67 85.333 -67 150v328h96v-327c0 -74 44.333 -111 133 -111c104.667 0 157 53.667 157 161v277h96v-465c0 -70.667 -22.833 -124 -68.5 -160s-110.167 -54 -193.5 -54z" />
    <glyph glyph-name="dotlessi" unicode="&#x131;" horiz-adv-x="136" 
d="M21 0v488h96v-488h-96z" />
    <glyph glyph-name="OE" unicode="&#x152;" horiz-adv-x="1010" 
d="M473 -1c-28 -4.66699 -58.001 -6.99902 -90.001 -6.99902c-116 0 -208.667 31.167 -278 93.5s-104 146.166 -104 251.499c0 106.667 34.333 191 103 253s161.667 93 279 93c22.667 0 45.334 -1.66699 68.001 -5h553v-87h-348c58.667 -51.333 93.667 -116.333 105 -195
h212v-87h-208c-6.66699 -91.333 -41.667 -165.333 -105 -222h350v-88h-537zM527.999 568.001v-172h136c-14.667 80.667 -60 138 -136 172zM527.999 309.001v-201.999c85.333 39.333 132 106.666 140 201.999h-140zM432.999 593.002c-16 2 -32.667 3.00098 -50 3.00098
c-90.667 0 -161 -23 -211 -69s-75 -109.333 -75 -190s25 -143.834 75 -189.501s120.333 -68.5 211 -68.5c17.333 0 34 1 50 3v511z" />
    <glyph glyph-name="oe" unicode="&#x153;" horiz-adv-x="1052" 
d="M583 206c11.333 -88 69.999 -131.999 175.999 -131.999c86.667 0 145 36.333 175 109h100c-28.667 -80 -69 -133 -121 -159c-45.333 -23.333 -97.333 -35 -156 -35c-108 0 -184.667 33.667 -230 101c-52.667 -67.333 -129.667 -101 -231 -101
c-86 0 -154.167 23.667 -204.5 71s-75.5 108.666 -75.5 183.999s25.5 136.833 76.5 184.5s119.5 71.5 205.5 71.5c106.667 0 185 -35.667 235 -107c52.667 71.333 128.667 107 228 107c82.667 0 149.334 -21.667 200.001 -65s76 -101.333 76 -174v-54zM888.999 372.001
c-30.667 28.667 -73.333 43 -128 43c-43.333 0 -80.333 -10.333 -111 -31c-33.333 -21.333 -55 -52.333 -65 -93h348c-6 32 -20.667 59 -44 81zM297 415.001c-58.667 0 -104.168 -15.668 -136.501 -47.001s-48.5 -72.666 -48.5 -123.999c0 -50.667 16.333 -91.667 49 -123
s78 -47 136 -47s103.5 15.667 136.5 47s49.5 72.333 49.5 123c0 52 -16.167 93.5 -48.5 124.5s-78.166 46.5 -137.499 46.5z" />
    <glyph glyph-name="Scaron" unicode="&#x160;" horiz-adv-x="642" 
d="M347 679h-59l-153 195h114l68 -84l68 84h118zM330 -7c-90.667 0 -164.664 15.998 -221.997 47.998c-73.333 40.667 -110 104.334 -110 191.001v45h97v-42c0 -102 78.667 -153 236 -153c57.333 0 103.666 7.66699 138.999 23c43.333 19.333 65 47.333 65 84
c0 26.667 -6.66699 46.334 -20 59.001s-37 23.334 -71 32.001c-17.333 4.66699 -64.333 15 -141 31c-54 11.333 -84.667 17.666 -92 18.999c-34.667 8.66699 -63.667 19 -87 31c-68.667 34.667 -103 85 -103 151c0 125.333 96.667 188 290 188
c201.333 0 303.333 -84 306 -252h-94c-4.66699 72 -25.334 118 -62.001 138c-32.667 16.667 -82.667 25 -150 25c-129.333 0 -194 -33 -194 -99c0 -31.333 15.333 -54.666 46 -69.999c25.333 -12.667 69.666 -24.334 132.999 -35.001c124 -21.333 207.333 -44.333 250 -69
c56.667 -32.667 85 -83 85 -151c0 -68.667 -35.333 -120 -106 -154c-54 -26.667 -119 -40 -195 -40z" />
    <glyph glyph-name="scaron" unicode="&#x161;" horiz-adv-x="486" 
d="M268 492h-58l-153 192h114l68 -82l68 82h119zM393 17c-37.333 -20 -85.332 -30.002 -143.999 -30.002c-163.333 0 -245 77.667 -245 233h98c0 -53.333 11.167 -90.666 33.5 -111.999s60.5 -32 114.5 -32c83.333 0 125 22.667 125 68c0 26.667 -27.667 46 -83 58
c-4 0.666992 -37 5.66699 -99 15c-112 16 -168 64.333 -168 145c0 52 23 92.667 69 122c38.667 23.333 84.667 35 138 35c158 0 237.333 -70.667 238 -212h-99c0 46 -9.83301 78 -29.5 96s-54.5 27 -104.5 27c-32.667 0 -59.834 -6.16699 -81.501 -18.5
s-32.5 -28.833 -32.5 -49.5c0 -26 26.333 -43.667 79 -53l106 -18c110 -18 165 -67 165 -147c0 -57.333 -26.667 -99.666 -80 -126.999z" />
    <glyph glyph-name="Ydieresis" unicode="&#x178;" horiz-adv-x="663" 
d="M394 673c-15.333 0 -27 4.66797 -35 14.001s-12 20 -12 32v50c0 13.333 4.5 24.166 13.5 32.499s20.167 12.5 33.5 12.5c29.333 0 45.333 -14.333 48 -43l1 -52c0 -12.667 -4.5 -23.5 -13.5 -32.5s-20.833 -13.5 -35.5 -13.5zM279 673.001
c-14.667 0 -26.3359 4.49902 -35.0029 13.499s-13 19.833 -13 32.5v50c0 14.667 4.83301 25.834 14.5 33.501s20.834 11.5 33.501 11.5c28.667 0 44.334 -14.333 47.001 -43l1 -52c0 -12 -4.16699 -22.667 -12.5 -32s-20.166 -14 -35.499 -14zM380.998 326v-326h-96v326
l-352 364h129l270 -280l272 280h126z" />
    <glyph glyph-name="florin" unicode="&#x192;" horiz-adv-x="584" 
d="M618 578c-66 0 -115.667 -7.66699 -149 -23c-41.333 -18.667 -69.666 -52 -84.999 -100h110l-24 -90h-110l-87 -339c-16.667 -66.667 -53.167 -115.667 -109.5 -147s-135.833 -47 -238.5 -47l21 88c134 0 210.667 36.333 230 109l86 336h-76l29 90h71l5 18
c17.333 66 54.166 114.667 110.499 146s135.5 47 237.5 47z" />
    <glyph glyph-name="circumflex" unicode="&#x2c6;" horiz-adv-x="259" 
d="M198 540l-70 55l-70 -55h-121l163 134h54l170 -134h-126z" />
    <glyph glyph-name="caron" unicode="&#x2c7;" horiz-adv-x="136" 
d="M90 549h-55l-163 135h122l69 -55l69 55h127z" />
    <glyph glyph-name="ring" unicode="&#x2da;" horiz-adv-x="136" 
d="M64 569c-29.333 0 -55.333 6.00195 -78 18.002c-26 13.333 -39 31.666 -39 54.999s13 41.666 39 54.999c22.667 12 48.667 18 78 18s55 -6 77 -18c26 -14 39 -32.333 39 -55c0 -24 -14 -43 -42 -57c-22 -10.667 -46.667 -16 -74 -16zM64 646.002
c-12 0 -18 -1.33301 -18 -4s6 -4 18 -4c12.667 0 19 1.33301 19 4s-6.33301 4 -19 4z" />
    <glyph glyph-name="tilde" unicode="&#x2dc;" horiz-adv-x="366" 
d="M250 547c-15.333 0 -36 3 -62 9c-20.667 4.66699 -41.667 9.66699 -63 15c-5.33301 0.666992 -8.66602 1 -9.99902 1c-8 0 -12.667 -4 -14 -12c0 -2.66699 -0.666992 -11.667 -2 -27l-89 28c0 26.667 13.333 45.667 40 57c21.333 8.66699 43.333 13 66 13
c15.333 0 42.666 -5 81.999 -15c30.667 -7.33301 48 -11 52 -11c8.66699 0 13.667 3.66699 15 11c0.666992 1.33301 1.66699 10.333 3 27l93 -26c-7.33301 -28 -21.333 -46.667 -42 -56s-43.667 -14 -69 -14z" />
    <glyph glyph-name="mu" unicode="&#x3bc;" horiz-adv-x="584" 
 />
    <glyph glyph-name="endash" unicode="&#x2013;" horiz-adv-x="495" 
d="M-38 254v20h569v-20h-569z" />
    <glyph glyph-name="emdash" unicode="&#x2014;" horiz-adv-x="894" 
d="M-38 254v20h968v-20h-968z" />
    <glyph glyph-name="quoteleft" unicode="&#x2018;" horiz-adv-x="175" 
d="M115 526c-7.33301 -16.667 -22.332 -25 -44.999 -25c-13.333 0 -24.833 3.16699 -34.5 9.5s-14.5 14.833 -14.5 25.5c0 4 0.666992 8 2 12l42 103c7.33301 17.333 22.666 26 45.999 26c12.667 0 24 -3.16699 34 -9.5s15 -14.833 15 -25.5c0 -4 -0.666992 -8 -2 -12z" />
    <glyph glyph-name="quoteright" unicode="&#x2019;" horiz-adv-x="175" 
d="M116 527c-7.33301 -17.333 -22.667 -26 -46 -26c-13.333 0 -24.833 3.16699 -34.5 9.5s-14.5 14.5 -14.5 24.5c0 4.66699 0.666992 9 2 13l43 103c7.33301 17.333 22.333 26 45 26c12.667 0 24 -3.16699 34 -9.5s15 -14.833 15 -25.5c0 -4 -0.666992 -8 -2 -12z" />
    <glyph glyph-name="quotesinglbase" unicode="&#x201a;" horiz-adv-x="292" 
d="M154 -64c-7.33301 -17.333 -26 -25.999 -56 -25.999c-26 0 -39 11.667 -39 35c0 3.33301 1 7.66602 3 12.999l42 102c7.33301 17.333 22.333 26 45 26c12.667 0 24 -3.16699 34 -9.5s15 -14.833 15 -25.5c0 -4 -0.666992 -8 -2 -12z" />
    <glyph glyph-name="quotedblleft" unicode="&#x201c;" horiz-adv-x="267" 
d="M220 526c-7.33301 -16.667 -22.332 -25 -44.999 -25c-13.333 0 -24.833 3.16699 -34.5 9.5s-14.5 14.833 -14.5 25.5c0 4 0.666992 8 2 12l42 103c7.33301 17.333 22.666 26 45.999 26c12.667 0 24 -3.16699 34 -9.5s15 -14.833 15 -25.5c0 -4 -0.666992 -8 -2 -12z
M115.001 526c-7.33301 -16.667 -22.332 -25 -44.999 -25c-13.333 0 -24.833 3.16699 -34.5 9.5s-14.5 14.833 -14.5 25.5c0 4 0.666992 8 2 12l42 103c7.33301 17.333 22.666 26 45.999 26c12.667 0 24 -3.16699 34 -9.5s15 -14.833 15 -25.5c0 -4 -0.666992 -8 -2 -12z" />
    <glyph glyph-name="quotedblright" unicode="&#x201d;" horiz-adv-x="276" 
d="M221 527c-7.33301 -17.333 -22.667 -26 -46 -26c-13.333 0 -24.833 3.16699 -34.5 9.5s-14.5 14.5 -14.5 24.5c0 4.66699 0.666992 9 2 13l43 103c7.33301 17.333 22.333 26 45 26c12.667 0 24 -3.16699 34 -9.5s15 -14.833 15 -25.5c0 -4 -0.666992 -8 -2 -12z
M115.999 527c-7.33301 -17.333 -22.667 -26 -46 -26c-13.333 0 -24.833 3.16699 -34.5 9.5s-14.5 14.5 -14.5 24.5c0 4.66699 0.666992 9 2 13l43 103c7.33301 17.333 22.333 26 45 26c12.667 0 24 -3.16699 34 -9.5s15 -14.833 15 -25.5c0 -4 -0.666992 -8 -2 -12z" />
    <glyph glyph-name="quotedblbase" unicode="&#x201e;" horiz-adv-x="351" 
d="M259 -64c-7.33301 -17.333 -26 -25.999 -56 -25.999c-26 0 -39 11.667 -39 35c0 3.33301 1 7.66602 3 12.999l42 102c7.33301 17.333 22.333 26 45 26c12.667 0 24 -3.16699 34 -9.5s15 -14.833 15 -25.5c0 -4 -0.666992 -8 -2 -12zM154 -63.999
c-7.33301 -17.333 -26 -25.999 -56 -25.999c-26 0 -39 11.667 -39 35c0 3.33301 1 7.66602 3 12.999l42 102c7.33301 17.333 22.333 26 45 26c12.667 0 24 -3.16699 34 -9.5s15 -14.833 15 -25.5c0 -4 -0.666992 -8 -2 -12z" />
    <glyph glyph-name="dagger" unicode="&#x2020;" horiz-adv-x="345" 
d="M213 417v-474h-96v474h-118v88h118v116h96v-116h118v-88h-118z" />
    <glyph glyph-name="daggerdbl" unicode="&#x2021;" horiz-adv-x="337" 
d="M218 34v-91h-96v91h-118v89h118v294h-118v88h118v116h96v-116h117v-88h-117v-294h117v-89h-117z" />
    <glyph glyph-name="bullet" unicode="&#x2022;" horiz-adv-x="292" 
d="M121 250c-30 0 -55.333 4 -76 12c-18 7.33301 -27 15 -27 23v80c0 8 9 15.667 27 23c20.667 8 46 12 76 12s55.333 -4 76 -12c18.667 -7.33301 28 -15 28 -23v-80c0 -8 -9.33301 -15.667 -28 -23c-20.667 -8 -46 -12 -76 -12z" />
    <glyph glyph-name="ellipsis" unicode="&#x2026;" horiz-adv-x="638" 
d="M524 -2c-32 0 -48 9.66699 -48 29v29c0 19.333 16 29 48 29s48 -9.66699 48 -29v-29c0 -19.333 -16 -29 -48 -29zM335 -2c-32 0 -48 9.66699 -48 29v29c0 19.333 16 29 48 29s48 -9.66699 48 -29v-29c0 -19.333 -16 -29 -48 -29zM146 -2c-32 0 -48 9.66699 -48 29v29
c0 19.333 16 29 48 29s48 -9.66699 48 -29v-29c0 -19.333 -16 -29 -48 -29z" />
    <glyph glyph-name="perthousand" unicode="&#x2030;" horiz-adv-x="1012" 
d="M846 -19c-56.667 0 -99.668 17.333 -129.001 52c-27.333 32.667 -41 79 -41 139c0 130 57 195 171 195c114.667 0 172 -65 172 -195c0 -60 -14.333 -106.333 -43 -139c-29.333 -34.667 -72.666 -52 -129.999 -52zM541.999 -19c-57.333 0 -100.668 17.333 -130.001 52
c-27.333 32.667 -41 79 -41 139c0 130 57.333 195 172 195c114 0 171 -65 171 -195c0 -60 -14 -106.333 -42 -139c-29.333 -34.667 -72.666 -52 -129.999 -52zM158.997 -2h-118l532 680h117zM171.997 275c-56.667 0 -99.668 17.333 -129.001 52
c-27.333 32.667 -41 78.667 -41 138c0 129.333 57 194 171 194c114.667 0 172 -64.667 172 -194c0 -59.333 -14.333 -105.333 -43 -138c-29.333 -34.667 -72.666 -52 -129.999 -52zM845.996 279c-48.667 0 -73 -35.667 -73 -107c0 -69.333 24.667 -104 74 -104
c50 0 75 34.667 75 104c0 71.333 -25.333 107 -76 107zM541.996 279c-49.333 0 -74 -35.667 -74 -107c0 -69.333 25 -104 75 -104c49.333 0 74 34.667 74 104c0 71.333 -25 107 -75 107zM171.996 572c-48.667 0 -73 -35.667 -73 -107c0 -68.667 24.667 -103 74 -103
c50 0 75 34.333 75 103c0 71.333 -25.333 107 -76 107z" />
    <glyph glyph-name="guilsinglleft" unicode="&#x2039;" horiz-adv-x="294" 
d="M34 249v49l224 124v-92l-98 -56l98 -56v-89z" />
    <glyph glyph-name="guilsinglright" unicode="&#x203a;" horiz-adv-x="294" 
d="M34 129v89l97 56l-97 56v92l224 -124v-49z" />
    <glyph glyph-name="sterling" unicode="&#x20ac;" horiz-adv-x="584" 
d="M356 -12c-80.667 0 -146.333 21.832 -197 65.499s-78.667 101.167 -84 172.5h-82l15 87h66v27h-60l21 87h39c4.66699 68.667 30 125.334 76 170.001c51.333 49.333 120 74 206 74c83.333 0 160 -33.333 230 -100l-71 -60c-50.667 48.667 -104 73 -160 73
c-58.667 0 -104 -16.333 -136 -49c-28.667 -28 -45 -64 -49 -108h303l-21 -87h-282v-27h275l-15 -87h-259c4.66699 -41.333 20.667 -75.333 48 -102c32.667 -32.667 78 -49 136 -49c56 0 109.333 23.667 160 71l72 -57c-70.667 -67.333 -147.667 -101 -231 -101z" />
    <glyph glyph-name="trademark" unicode="&#x2122;" horiz-adv-x="789" 
d="M674 347v155l-98 -155h-67l-103 160c0 -38 0.333008 -91.333 1 -160h-100v254h-43v-254h-100v254h-148v83h388l138 -213l136 213h97v-337h-101z" />
    <glyph glyph-name=".null" horiz-adv-x="0" 
 />
    <glyph glyph-name="nonmarkingreturn" horiz-adv-x="354" 
 />
    <glyph glyph-name="glyph221" horiz-adv-x="354" 
 />
    <glyph glyph-name="glyph222" horiz-adv-x="354" 
 />
    <glyph glyph-name="glyph222" horiz-adv-x="354" 
 />
    <glyph glyph-name="glyph223" horiz-adv-x="354" 
 />
    <glyph glyph-name="ch333" horiz-adv-x="292" 
 />
    <glyph glyph-name="ch334" horiz-adv-x="292" 
 />
    <glyph glyph-name="glyph221" horiz-adv-x="292" 
 />
    <glyph glyph-name="ch336" horiz-adv-x="292" 
 />
    <glyph glyph-name="ch337" horiz-adv-x="292" 
 />
    <glyph glyph-name="ch338" horiz-adv-x="292" 
 />
    <glyph glyph-name="glyph224" horiz-adv-x="292" 
 />
    <glyph glyph-name="ch340" horiz-adv-x="292" 
 />
    <glyph glyph-name="ch335" horiz-adv-x="292" 
 />
    <glyph glyph-name="glyph225" horiz-adv-x="292" 
 />
    <glyph glyph-name="glyph226" horiz-adv-x="292" 
 />
    <glyph glyph-name="ch344" horiz-adv-x="292" 
 />
    <glyph glyph-name="ch339" horiz-adv-x="292" 
 />
    <glyph glyph-name="ch342" horiz-adv-x="292" 
 />
    <glyph glyph-name="ch263" horiz-adv-x="292" 
 />
    <glyph glyph-name="glyph103" horiz-adv-x="420" 
d="M512 417c0 36.667 -7.99902 60.001 -23.999 70.001c-18.667 12 -41.667 18 -69 18c-28 0 -50.5 -5.66699 -67.5 -17s-25.5 -25.333 -25.5 -42c0 -40.667 -20.333 -74 -61 -100c-36 -23.333 -78 -35 -126 -35s-90 11.667 -126 35c-42 26 -63 70 -63 132h96
c0 -36.667 7.66699 -60.334 23 -71.001c19.333 -12 42.666 -18 69.999 -18s49.666 5.5 66.999 16.5s26 24.5 26 40.5c0 41.333 20 75 60 101c36 24 78.333 36 127 36c49.333 0 92 -12 128 -36c38.667 -25.333 58.334 -70 59.001 -134z" />
    <glyph glyph-name="glyph214" horiz-adv-x="350" 
d="M274 369v-113h-100v113h-294l201 289h100c4 -6.66699 6 -10.667 6 -12l-13 -20l-120 -172h120v205l100 -3v-202h93v-85h-93z" />
    <glyph glyph-name=".null" horiz-adv-x="0" 
 />
  </font>
</defs>
</svg>
